<?xml version="1.0" encoding="utf-8"?>
<!-- Generator: Adobe Illustrator 26.1.0, SVG Export Plug-In . SVG Version: 6.00 Build 0)  -->
<svg version="1.1" xmlns="http://www.w3.org/2000/svg" xmlns:xlink="http://www.w3.org/1999/xlink" x="0px" y="0px"
	 viewBox="0 0 370 176" style="enable-background:new 0 0 370 176;" xml:space="preserve">
<style type="text/css">
	.st0{fill:#FFFFFF;}
	.st1{fill:#9E1981;}
	.st2{opacity:0.5;fill:#D51317;}
	.st3{opacity:0.5;fill:#1F71B8;}
	.st4{opacity:0.5;fill:#DA5914;}
	.st5{opacity:0.5;fill:#008D36;}
	.st6{opacity:0.5;fill:#FFDE00;}
	.st7{opacity:0.6;fill:#9E1981;}
	.st8{display:none;opacity:0.6;fill:#9E1981;}
	.st9{opacity:0.7;fill:#9E1981;}
</style>
<g id="bg_white">
	<rect x="-1" y="-1" class="st0" width="372" height="178"/>
</g>
<g id="Open_Culturas">
	<path id="Culturas_00000117640308433854586300000015009584277550526354_" class="st1" d="M203.2,48.9c-8.3,0-14.5,2.5-18.5,7.5
		c-4,5-6,11.8-6,20.5c0,8.8,2,15.7,6,20.7c4,5,10.1,7.5,18.4,7.5c5.6,0,10.2-1.1,13.8-3.4c3.6-2.3,6.3-5.5,8-9.7
		c1.7-4.2,2.6-9.2,2.6-15c0-8.8-1.9-15.6-5.8-20.6C217.8,51.4,211.6,48.9,203.2,48.9z M210.5,89c-1.5,2.8-4,4.1-7.4,4.1
		c-3.4,0-5.8-1.4-7.3-4.2c-1.5-2.8-2.3-6.8-2.3-11.9c0-5.2,0.8-9.2,2.3-12c1.5-2.8,4-4.2,7.4-4.2c3.4,0,5.9,1.4,7.3,4.2
		c1.5,2.8,2.2,6.8,2.2,12.1C212.8,82.3,212,86.3,210.5,89z M356.2,49.8v22.9c0,1.5,0,3.1,0.1,4.9c0.1,1.8,0.2,3.5,0.3,5
		c0.1,1.6,0.2,2.7,0.2,3.3h-0.2l-17.8-36.2H321v54.6h12.8V81.4c0-1.6-0.1-3.3-0.2-5.2c-0.1-1.9-0.2-3.6-0.3-5.2
		c-0.1-1.6-0.2-2.8-0.2-3.5h0.3l17.9,36.8H369V49.8H356.2z M253.2,49.8h-18v54.6h14.1V86.3h3.5c4.7,0,8.6-0.9,11.4-2.6
		c2.9-1.8,5-4.1,6.2-7s1.9-6.1,1.9-9.5c0-5.6-1.6-9.8-4.8-12.8C264.4,51.3,259.6,49.8,253.2,49.8z M256.4,73
		c-1.3,1.1-2.9,1.6-4.7,1.6h-2.3V61.4h3.1c2,0,3.5,0.5,4.4,1.6c1,1.1,1.5,2.5,1.5,4.4C258.4,70.1,257.7,72,256.4,73z M280.3,104.4
		h30.2V92.7h-16.1V81.9h14.9V70.4h-14.9v-9h16.1V49.8h-30.2V104.4z"/>
	<path id="Open_00000139291654794401897460000006123246552533073810_" class="st1" d="M25.5,130.5c2,0,4,0.3,5.8,0.9
		c1.8,0.6,3.6,1.4,5.4,2.4l4.1-11.3c-2.5-1.3-5.2-2.3-7.8-2.9c-2.7-0.6-5.3-0.9-7.8-0.9c-5.2,0-9.5,1.2-13.1,3.6
		c-3.6,2.4-6.3,5.7-8.2,9.9C1.9,136.5,1,141.4,1,147c0,5.7,0.8,10.7,2.5,14.8c1.7,4.2,4.3,7.4,7.7,9.7c3.5,2.3,7.9,3.4,13.2,3.4
		c2.6,0,5.1-0.2,7.5-0.7c2.3-0.5,4.6-1.3,6.8-2.3v-12.2c-2,1-4.1,1.8-6.1,2.4c-2,0.7-4.2,1-6.3,1c-7.1,0-10.7-5.4-10.7-16.1
		c0-5.1,0.9-9.2,2.6-12.1C19.9,132,22.4,130.5,25.5,130.5z M76.4,152.9c0,3.6-0.6,6.1-1.8,7.7c-1.2,1.6-3,2.3-5.6,2.3
		c-2.4,0-4.3-0.8-5.5-2.3c-1.2-1.5-1.8-4.1-1.8-7.6v-33.4H47.6v34.3c0,6.8,1.8,12,5.5,15.6c3.6,3.6,8.9,5.4,15.8,5.4
		c7.2,0,12.6-1.9,16.2-5.7s5.5-9,5.5-15.7v-34H76.4V152.9z M114.5,119.5h-14.1v54.6H133v-11.6h-18.5V119.5z M130.2,131.3h12.1v42.8
		h14.1v-42.8h12v-11.8h-38.2V131.3z M203.1,152.9c0,3.6-0.6,6.1-1.8,7.7c-1.2,1.6-3,2.3-5.6,2.3c-2.4,0-4.3-0.8-5.5-2.3
		c-1.2-1.5-1.8-4.1-1.8-7.6v-33.4h-14.1v34.3c0,6.8,1.8,12,5.5,15.6c3.6,3.6,8.9,5.4,15.8,5.4c7.2,0,12.6-1.9,16.2-5.7
		s5.5-9,5.5-15.7v-34h-14.1V152.9z M262.5,144.3c1.5-2.4,2.3-5.3,2.3-8.6c0-10.8-7-16.1-21-16.1H227v54.6h14.1V154h3l10.5,20.1h15.8
		l-14.2-23.8C258.9,148.7,261,146.7,262.5,144.3z M248.5,141.7c-1.3,1-3,1.6-5.1,1.6h-2.2v-12.7h2.4c2.4,0,4.1,0.5,5.2,1.5
		c1.1,1,1.6,2.4,1.6,4.2C250.4,138.9,249.8,140.7,248.5,141.7z M288,119.4l-16.1,54.8h15.4l2.4-10.4h15.6l2.4,10.4h15.3l-16.4-54.8
		H288z M292.4,152l2.4-10.2c0.3-1.3,0.6-2.7,1-4.3c0.3-1.6,0.7-3.2,1-4.7c0.3-1.6,0.6-2.9,0.8-4.1c0.2,1.2,0.5,2.6,0.8,4.2
		c0.3,1.6,0.7,3.3,1.1,4.9c0.4,1.6,0.7,3,1,4.1l2.3,10.2H292.4z M350.3,141.6c-2.4-1.2-4.4-2.2-5.7-3c-1.4-0.8-2.3-1.5-2.9-2.2
		c-0.5-0.7-0.8-1.5-0.8-2.3c0-1,0.4-1.9,1.1-2.5c0.8-0.7,2-1,3.7-1c1.8,0,3.7,0.3,5.7,0.9c2,0.6,4.1,1.5,6.3,2.6l4.1-11.4
		c-2.3-1.1-4.8-2.1-7.4-2.8c-2.7-0.7-5.5-1.1-8.6-1.1c-5.9,0-10.5,1.4-14,4.1c-3.4,2.8-5.2,6.7-5.2,11.9c0,3.1,0.5,5.6,1.5,7.6
		c1,2,2.4,3.7,4.2,5.1c1.8,1.4,4,2.8,6.5,4.1c2.2,1.1,3.9,2.1,5.2,2.8s2.2,1.5,2.7,2.1c0.5,0.7,0.8,1.5,0.8,2.4
		c0,1.2-0.5,2.1-1.4,2.9c-0.9,0.8-2.4,1.1-4.4,1.1c-2.2,0-4.7-0.4-7.4-1.2c-2.8-0.8-5.5-1.9-8.1-3.4v13.2c2.5,1.3,5,2.2,7.3,2.7
		c2.3,0.5,5.1,0.8,8.3,0.8c4.4,0,8.1-0.8,11-2.4c2.9-1.6,5.1-3.7,6.6-6.3c1.5-2.6,2.2-5.5,2.2-8.6c0-4-1-7.2-3-9.6
		C356.9,145.6,354.1,143.5,350.3,141.6z"/>
</g>
<g id="crown">
	<polygon class="st0" points="137.6,24.5 130.8,1.1 104.7,24.5 88.3,1.1 71.9,24.5 45.8,1.1 39,24.5 3.3,1.1 15.9,104.3 
		160.7,104.3 173.3,1.1 	"/>
	<polygon class="st2" points="160.7,104.3 15.9,104.3 3.3,1.1 	"/>
	<polygon class="st3" points="160.7,104.3 15.9,104.3 173.3,1.1 	"/>
	<polygon class="st4" points="160.7,104.3 15.9,104.3 45.8,1.1 	"/>
	<polygon class="st5" points="160.7,104.3 15.9,104.3 130.8,1.1 	"/>
	<polygon class="st6" points="160.7,104.3 15.9,104.3 88.3,1.1 	"/>
	<polygon class="st2" points="160.7,104.3 15.9,104.3 3.3,1.1 	"/>
	<polygon class="st3" points="160.7,104.3 15.9,104.3 173.3,1.1 	"/>
	<polygon class="st4" points="160.7,104.3 15.9,104.3 45.8,1.1 	"/>
	<polygon class="st5" points="160.7,104.3 15.9,104.3 130.8,1.1 	"/>
	<polygon class="st6" points="160.7,104.3 15.9,104.3 88.3,1.1 	"/>
	<polygon class="st7" points="160.7,104.3 15.9,104.3 7.9,39.3 	"/>
	<polygon class="st7" points="160.7,104.3 15.9,104.3 168.7,39.3 	"/>
	<polygon class="st8" points="174.8,107.6 30,107.6 59.9,42.6 	"/>
	<polygon class="st8" points="174.8,107.6 30,107.6 144.9,42.6 	"/>
	<polygon class="st9" points="160.7,104.3 15.9,104.3 88.3,39.3 	"/>
</g>
</svg>
