<svg xmlns="http://www.w3.org/2000/svg" width="514" height="287" viewBox="0 0 514 287"><defs><style>.a{fill:#fff;}.b,.h,.i{fill:#9d1980;}.c{fill:#d41317;}.c,.d,.e,.f,.g{opacity:0.5;}.d{fill:#1d70b7;}.e{fill:#da5914;}.f{fill:#008d36;}.g{fill:#fd0;}.h{opacity:0.4;}.i{opacity:0.8;}</style></defs><rect class="a" width="514" height="287"/><path class="b" d="M88.29,176.8a19.7,19.7,0,0,1,6.27,1,32.41,32.41,0,0,1,5.86,2.64l4.37-12.21a35.26,35.26,0,0,0-8.45-3.13,37.94,37.94,0,0,0-8.46-1A24.91,24.91,0,0,0,73.73,168a24.55,24.55,0,0,0-8.86,10.72,38.49,38.49,0,0,0-3.06,15.84,42.62,42.62,0,0,0,2.73,16A21.8,21.8,0,0,0,72.87,221q5.61,3.68,14.27,3.67a39.45,39.45,0,0,0,8-.78,31.12,31.12,0,0,0,7.3-2.52V208.23a53.4,53.4,0,0,1-6.6,2.64A21.85,21.85,0,0,1,89,212q-11.55,0-11.55-17.33,0-8.33,2.84-13.07A8.84,8.84,0,0,1,88.29,176.8Zm54.87,24.09c0,3.85-.64,6.62-1.9,8.29s-3.27,2.52-6,2.52a7.15,7.15,0,0,1-5.94-2.48c-1.32-1.65-2-4.39-2-8.25V164.92H112.06v37q0,11,5.9,16.83t17,5.86q11.63,0,17.53-6.1t5.9-16.92V164.92H143.16Zm41.12-36H169v58.91h35.23V211.29h-20Zm16.87,12.71h13v46.2h15.18v-46.2h12.95V164.92H201.15Zm78.64,23.26c0,3.85-.64,6.62-1.9,8.29s-3.27,2.52-6,2.52a7.15,7.15,0,0,1-5.94-2.48c-1.32-1.65-2-4.39-2-8.25V164.92H248.69v37q0,11,5.9,16.83t17,5.86q11.64,0,17.53-6.1t5.9-16.92V164.92H279.79ZM344,191.61a17.23,17.23,0,0,0,2.43-9.28q0-17.4-22.68-17.41H305.65v58.91h15.26v-21.7h3.22l11.3,21.7h17.08l-15.35-25.66A20,20,0,0,0,344,191.61Zm-15.14-2.72a8.44,8.44,0,0,1-5.53,1.69h-2.39V176.89h2.56c2.58,0,4.47.53,5.65,1.6a5.89,5.89,0,0,1,1.78,4.58Q330.9,187.2,328.83,188.89Zm42.59-24.13L354,223.83h16.66l2.64-11.22h16.83l2.64,11.22h16.5l-17.66-59.07ZM376.21,200l2.56-11c.33-1.38.67-2.93,1-4.66s.71-3.44,1.07-5.12.64-3.14.86-4.41c.22,1.27.51,2.78.87,4.54s.74,3.52,1.16,5.28.75,3.24,1,4.45l2.47,11Zm62.48-11.21c-2.64-1.33-4.7-2.41-6.19-3.26a10.82,10.82,0,0,1-3.09-2.4,4,4,0,0,1-.87-2.51,3.49,3.49,0,0,1,1.24-2.73,6.16,6.16,0,0,1,4-1.07,21.16,21.16,0,0,1,6.15,1,41.88,41.88,0,0,1,6.81,2.81l4.45-12.29a47.15,47.15,0,0,0-8-3A34.59,34.59,0,0,0,434,164.1q-9.5,0-15.06,4.45t-5.57,12.79a18.29,18.29,0,0,0,1.61,8.17,15.74,15.74,0,0,0,4.58,5.48,50.29,50.29,0,0,0,7,4.42c2.37,1.21,4.24,2.22,5.61,3.05a10.24,10.24,0,0,1,2.89,2.31,4.07,4.07,0,0,1,.83,2.56,3.9,3.9,0,0,1-1.49,3.13,7.26,7.26,0,0,1-4.7,1.24,29.39,29.39,0,0,1-8-1.28,41.52,41.52,0,0,1-8.75-3.67v14.19a34.4,34.4,0,0,0,7.88,2.89,42.93,42.93,0,0,0,8.95.82,24.84,24.84,0,0,0,11.92-2.56,17.35,17.35,0,0,0,7.14-6.84,18.89,18.89,0,0,0,2.39-9.33q0-6.51-3.26-10.31A29.76,29.76,0,0,0,438.69,188.77Z"/><path class="b" d="M279.94,88.78q-13.44,0-19.92,8T253.54,119q0,14.19,6.48,22.32t19.84,8.12q9.08,0,14.89-3.67a21.82,21.82,0,0,0,8.62-10.47,42.49,42.49,0,0,0,2.81-16.22q0-14.17-6.31-22.23T279.94,88.78ZM287.86,132q-2.39,4.45-8,4.45a8.36,8.36,0,0,1-7.92-4.54q-2.47-4.53-2.47-12.87t2.47-13a8.43,8.43,0,0,1,8-4.58q5.54,0,7.92,4.54t2.39,13Q290.25,127.56,287.86,132Zm46-42.32H314.47v58.9h15.26V129h3.79q7.68,0,12.34-2.85a16.54,16.54,0,0,0,6.72-7.55,25.23,25.23,0,0,0,2.06-10.23q0-9-5.2-13.86T333.85,89.69Zm3.47,25.07a7.88,7.88,0,0,1-5.12,1.74h-2.47V102.22h3.38a6.11,6.11,0,0,1,4.78,1.74,6.84,6.84,0,0,1,1.57,4.78Q339.46,113,337.32,114.76Zm25.86,33.83h32.58V136H378.44V124.33h16.09V111.88H378.44v-9.74h17.32V89.69H363.18ZM445,89.69v24.74q0,2.4.12,5.28c.08,1.93.18,3.73.29,5.41s.16,2.87.16,3.59h-.24l-19.23-39H407v58.9h13.77V123.84c0-1.7,0-3.56-.16-5.57s-.22-3.86-.33-5.57-.2-3-.25-3.79h.33l19.3,39.68h19.14V89.69Z"/><polygon class="c" points="232.58 148.51 76.37 148.51 62.73 37.17 232.58 148.51"/><polygon class="d" points="232.58 148.51 76.37 148.51 246.22 37.17 232.58 148.51"/><polygon class="e" points="232.58 148.51 76.37 148.51 108.6 37.17 232.58 148.51"/><polygon class="f" points="232.58 148.51 76.37 148.51 200.34 37.17 232.58 148.51"/><polygon class="g" points="232.58 148.51 76.37 148.51 154.47 37.17 232.58 148.51"/><polygon class="c" points="232.58 148.51 76.37 148.51 62.73 37.17 232.58 148.51"/><polygon class="d" points="232.58 148.51 76.37 148.51 246.22 37.17 232.58 148.51"/><polygon class="e" points="232.58 148.51 76.37 148.51 108.6 37.17 232.58 148.51"/><polygon class="f" points="232.58 148.51 76.37 148.51 200.34 37.17 232.58 148.51"/><polygon class="g" points="232.58 148.51 76.37 148.51 154.47 37.17 232.58 148.51"/><polygon class="h" points="232.58 148.51 76.37 148.51 67.76 78.36 232.58 148.51"/><polygon class="h" points="232.58 148.51 76.37 148.51 241.2 78.36 232.58 148.51"/><polygon class="i" points="232.58 148.51 76.37 148.51 154.47 78.36 232.58 148.51"/></svg>