<?xml version="1.0" encoding="utf-8"?>
<!-- Generator: Adobe Illustrator 25.3.1, SVG Export Plug-In . SVG Version: 6.00 Build 0)  -->
<svg version="1.1" id="Ebene_1" xmlns="http://www.w3.org/2000/svg" xmlns:xlink="http://www.w3.org/1999/xlink" x="0px" y="0px"
	 viewBox="0 0 155 62" style="enable-background:new 0 0 155 62;" xml:space="preserve">
<style type="text/css">
	.st0{fill:#A1167F;}
</style>
<g id="shape-5fa52966-7e91-11ec-bc9f-e910fe92d3a4">
	<g id="shape-5fa50251-7e91-11ec-bc9f-e910fe92d3a4">
		<g>
			<path class="st0" d="M9.4,0.6262c-6.025,1.075-9.275,5.55-9.3,12.725c0,4.775,1.15,7.9,3.775,10.325
				c2.325,2.175,5.5,3.125,9.3,2.85c5.25-0.375,8.8-3.3,10.375-8.525c0.575-1.875,0.625-6.625,0.125-8.625
				C22.05,2.8512,16.375-0.5988,9.4,0.6262z M14.325,2.9012c1.1,0.35,2.4,1.875,3.025,3.55c0.825,2.175,1.175,6.425,0.825,9.825
				c-0.325,3.325-0.975,5.275-2.2,6.625c-1.025,1.125-2.15,1.55-4.15,1.525c-2.9-0.05-4.775-2-5.575-5.825
				c-0.525-2.425-0.375-9.475,0.225-11.35C7.775,3.2262,10.45,1.7512,14.325,2.9012z M58.5,6.9012c-3,0.375-5.275,2.125-6.4,4.95
				c-0.5,1.225-0.575,1.85-0.575,4.9c0,3.325,0.025,3.575,0.725,5.075c1.75,3.75,6.075,5.55,10.95,4.525
				c3.225-0.675,4.85-2.5,3.975-4.4l-0.3-0.65l-0.9,0.925c-1.25,1.275-2.15,1.7-3.95,1.825c-1.85,0.15-3.05-0.3-3.95-1.45
				c-0.725-1-1.425-3.175-1.425-4.525v-0.95h5.9h5.925l-0.15-2.2c-0.175-2.975-0.725-4.375-2.275-5.925
				C64.225,7.2012,61.775,6.5012,58.5,6.9012z M61.45,9.1512c0.725,0.375,1.4,2.1,1.6,4.05l0.175,1.675H59.9h-3.325l0.175-1.375
				c0.325-2.85,1.6-4.625,3.3-4.625C60.55,8.8762,61.15,9.0012,61.45,9.1512z M83.2,6.8762c-1.55,0.225-2.25,0.65-3.325,2
				c-0.9,1.125-1.05,1.05-1.35-0.7l-0.175-1.05h-3.6h-3.6v0.875c0,0.75,0.075,0.875,0.6,0.875c0.325,0,0.875,0.225,1.25,0.525
				l0.65,0.5v6.75c0,6.325-0.025,6.75-0.475,7.2c-0.275,0.275-0.9,0.575-1.375,0.675c-0.825,0.15-0.9,0.225-0.9,1v0.85h5.375h5.375
				v-0.85c0-0.75-0.075-0.85-0.85-1c-1.7-0.325-1.775-0.6-1.775-6.375c0-4.4,0.075-5.325,0.45-6.325c0.575-1.5,1.45-2.2,2.725-2.2
				c1.35,0,1.9,0.35,2.475,1.575c0.425,0.95,0.475,1.725,0.475,8.1v7.075h3.875H92.9v-0.85c0-0.775-0.075-0.85-0.85-1
				c-1.5-0.275-1.525-0.35-1.65-7.375c-0.125-5.975-0.175-6.475-0.675-7.425c-0.3-0.55-0.95-1.375-1.425-1.8
				c-0.8-0.7-1.25-0.85-3.275-1.15C84.75,6.7262,83.925,6.7762,83.2,6.8762z M37.975,7.2762c-0.675,0.25-1.475,0.85-2.175,1.65
				c-1.2,1.375-1.075,1.425-1.65-0.75l-0.275-1.05h-3.35H27.15v0.875c0,0.75,0.075,0.875,0.6,0.875c0.35,0,0.95,0.275,1.325,0.6
				l0.7,0.6v10.875v10.875l-0.6,0.65c-0.425,0.45-0.875,0.65-1.45,0.65c-0.775,0-0.825,0.05-0.825,0.875v0.875h5.75h5.75v-0.875
				c0-0.85-0.025-0.875-0.975-0.875c-1.475,0-2.2-0.725-2.375-2.325c-0.25-2.15-0.3-6.925-0.075-6.925c0.1,0,0.55,0.4,1,0.925
				c1.125,1.275,2.45,1.825,4.55,1.825c1.925,0,3.8-0.7,4.8-1.775c1.575-1.725,2.5-5.55,2.25-9.35
				c-0.275-4.075-1.525-6.7-3.775-7.85C42.3,6.8762,39.525,6.7012,37.975,7.2762z M40.775,10.2012c0.6,0.6,0.9,1.2,1.1,2.175
				c0.75,3.8,0.525,8.125-0.525,10.25c-0.675,1.35-1.8,1.85-3.325,1.5c-2.125-0.475-2.9-2.3-2.925-6.95c0-3.6,0.175-4.95,0.9-6.2
				c0.65-1.175,1.425-1.6,2.875-1.6C39.75,9.3762,40.1,9.5262,40.775,10.2012z"/>
		</g>
	</g>
	<g id="shape-5fa52961-7e91-11ec-bc9f-e910fe92d3a4">
		<g>
			<path class="st0" d="M125.475,34.6762c-0.425,0.725-2.1,2.9-3.275,4.25c-0.35,0.425-0.3,0.45,0.875,0.45c1.2,0,1.4-0.1,3.2-1.6
				l1.95-1.6l1.925,1.6c1.775,1.45,2.05,1.6,3.1,1.6c0.625,0,1.15-0.05,1.15-0.125s-0.675-0.975-1.475-2
				c-0.825-1.025-1.7-2.2-1.925-2.625c-0.45-0.75-0.475-0.75-2.75-0.75h-2.3L125.475,34.6762z M48.65,35.0012
				c0,0.825,0.05,0.875,0.875,0.875c0.625,0,1.1,0.2,1.5,0.625l0.625,0.6v10.475c0,10.225-0.025,10.5-0.525,11.15
				c-0.325,0.425-0.85,0.7-1.5,0.8c-0.9,0.15-0.975,0.225-0.975,1v0.85h5.625H59.9v-0.85c0-0.775-0.075-0.85-0.975-1
				c-0.65-0.1-1.175-0.375-1.5-0.8c-0.525-0.65-0.525-0.9-0.525-12.625v-11.975h-4.125H48.65V35.0012z M11.85,35.6262
				c-4.45,0.8-7.575,3.4-8.95,7.375c-0.675,1.975-0.975,5-0.725,7.55c0.6,5.875,3.725,9.6,8.95,10.725c4.975,1.05,9.95-0.4,11-3.225
				c0.325-0.85,0.35-1.425,0.05-1.9c-0.2-0.3-0.45-0.175-1.275,0.575c-1.75,1.575-3.275,2.15-5.775,2.15c-1.825,0-2.325-0.1-3.5-0.7
				c-2.675-1.35-3.725-4.075-3.725-9.775c0-6.2,1.225-9.525,3.875-10.525c1.275-0.475,3.575-0.4,4.325,0.175
				c1.025,0.75,1.725,1.925,1.9,3.2c0.175,1.05,0.225,1.125,0.925,1.125c1.925,0,3.35-1.225,3.35-2.9c0-2.25-2.675-3.775-6.95-3.975
				C14.05,35.4512,12.5,35.5012,11.85,35.6262z M66.425,38.6762c-0.65,2.2-2,3.55-4.075,4.05c-0.575,0.125-0.7,0.3-0.7,0.9
				c0,0.725,0.025,0.75,1.225,0.75H64.1l0.1,6.8c0.1,7.525,0.175,8,1.675,9.275c1.475,1.225,4.125,1.475,7.35,0.675
				c1.175-0.3,1.175-0.325,1.175-1.35v-1.025h-1.9c-1.8,0-1.95-0.05-2.45-0.7c-0.5-0.675-0.525-1.05-0.6-7.2l-0.075-6.475h2.375h2.4
				v-1.125v-1.125h-2.375H69.4v-2.25v-2.25h-1.325h-1.35L66.425,38.6762z M125.9,41.9012c-3.275,0.3-5.25,1.55-5.25,3.325
				c0,1.05,0.775,1.8,2.25,2.125c2.075,0.475,2.15,0.45,2.475-1.2c0.35-1.825,0.925-2.4,2.45-2.4c0.825,0,1.2,0.125,1.475,0.5
				c0.575,0.775,0.85,2.1,0.85,4.05v1.825h-2.175c-5.975,0.025-8.825,1.925-8.825,5.875c0.025,3.575,2.6,5.925,6.15,5.55
				c1.575-0.175,2.5-0.625,3.65-1.825c0.55-0.525,1.05-0.85,1.275-0.775c0.2,0.075,0.475,0.65,0.65,1.275l0.275,1.15h3.25h3.25
				v-0.875c0-0.7-0.1-0.875-0.475-0.875c-0.25,0-0.725-0.225-1.05-0.475c-0.6-0.475-0.6-0.525-0.725-6.95
				c-0.125-6.3-0.15-6.475-0.75-7.575C133.325,42.2762,130.675,41.4512,125.9,41.9012z M130.1,54.0512
				c-0.125,2.65-0.5,3.675-1.6,4.55c-0.725,0.575-2.3,0.7-3.1,0.275c-1.525-0.825-1.15-5.6,0.5-6.5c0.6-0.325,2.375-0.675,3.6-0.725
				l0.725-0.025L130.1,54.0512z M110.65,42.3262c-0.475,0.25-1.2,0.975-1.625,1.625c-0.4,0.625-0.825,1.15-0.9,1.15
				c-0.1,0.025-0.3-0.65-0.475-1.475l-0.325-1.5h-3.575h-3.6v0.875c0,0.8,0.05,0.875,0.75,0.875c0.475,0,1,0.225,1.375,0.625
				l0.625,0.6v6.475c0,6.15-0.025,6.525-0.5,7.125c-0.3,0.375-0.9,0.725-1.375,0.825c-0.8,0.15-0.875,0.225-0.875,1v0.85h5.875
				h5.875v-0.875c0-0.85-0.025-0.875-1-0.875c-0.525,0-1.25-0.125-1.6-0.275c-1.075-0.5-1.2-1.3-1.1-6.525
				c0.075-4.2,0.15-4.975,0.6-5.95c0.6-1.325,1-1.7,2-1.9c0.925-0.175,2.1,0.675,2.1,1.525c0,1.4,0.7,1.725,2.325,1.025
				c2.525-1.075,2.875-4.325,0.55-5.3C114.525,41.7262,111.725,41.7762,110.65,42.3262z M144.775,42.2012
				c-3.4,1.125-4.875,3.475-4.1,6.55c0.55,2.15,1.825,3.125,7.05,5.25c0.925,0.375,1.95,0.9,2.3,1.175
				c1.25,0.975,1.025,3.35-0.4,4.075c-0.4,0.225-1.4,0.375-2.375,0.375c-1.575,0-1.7-0.05-2.6-0.95c-0.7-0.7-1.025-1.275-1.25-2.375
				c-0.175-0.775-0.425-1.425-0.55-1.425c-0.575,0-1.925,0.75-2.3,1.275c-0.55,0.8-0.5,2.175,0.1,3.15
				c1.65,2.725,8.975,3.125,12.2,0.65c1.125-0.85,2.05-2.85,2.05-4.4c0-2.7-1.625-4.35-5.975-6.05c-3.9-1.5-4.95-2.625-4.175-4.5
				c0.425-1.025,1.525-1.475,3.15-1.325c1.6,0.15,2.375,0.85,2.75,2.5l0.3,1.25l0.925-0.175c1.4-0.25,2.125-0.9,2.225-1.975
				c0.1-1.2-0.425-2-1.775-2.7c-0.875-0.45-1.525-0.575-3.8-0.625C146.75,41.9012,145.425,42.0012,144.775,42.2012z M24.9,42.9762
				c0,0.775,0.075,0.85,1,1c1.55,0.25,1.6,0.475,1.75,7.525c0.125,5.85,0.175,6.325,0.7,7.3c1.05,2,3.075,2.975,5.65,2.775
				c1.875-0.15,3.4-0.9,4.3-2.075c0.35-0.475,0.75-0.825,0.85-0.75c0.125,0.075,0.35,0.7,0.525,1.375l0.325,1.25h3.45h3.45v-0.85
				c0-0.775-0.05-0.85-1.025-1c-1.675-0.275-1.725-0.6-1.725-9.65v-7.75h-3.875H36.4v0.875c0,0.75,0.075,0.875,0.6,0.875
				c0.35,0,0.95,0.275,1.325,0.6l0.7,0.6v5.1c-0.025,5.475-0.2,6.55-1.3,7.75c-1.375,1.475-3.675,1.05-4.45-0.825
				c-0.4-0.95-0.475-2.075-0.575-8.05l-0.1-6.925h-3.85H24.9V42.9762z M76.15,42.9762c0,0.775,0.075,0.85,1,1
				c1.55,0.25,1.6,0.475,1.75,7.525c0.125,5.85,0.175,6.325,0.7,7.3c1.05,2,3.075,2.975,5.65,2.775c1.875-0.15,3.4-0.9,4.3-2.075
				c0.35-0.475,0.75-0.825,0.85-0.75c0.125,0.075,0.35,0.7,0.525,1.375l0.325,1.25h3.45h3.45v-0.85c0-0.775-0.05-0.85-1.025-1
				c-1.675-0.275-1.725-0.6-1.725-9.65v-7.75h-3.875H87.65v0.875c0,0.75,0.075,0.875,0.6,0.875c0.35,0,0.95,0.275,1.325,0.6l0.7,0.6
				v5.1c-0.025,5.475-0.2,6.55-1.3,7.75c-1.375,1.475-3.675,1.05-4.45-0.825c-0.4-0.95-0.475-2.075-0.575-8.05l-0.1-6.925H80h-3.85
				V42.9762z"/>
		</g>
	</g>
</g>
</svg>
