<?xml version="1.0" standalone="no"?>
<!DOCTYPE svg PUBLIC "-//W3C//DTD SVG 20010904//EN"
 "http://www.w3.org/TR/2001/REC-SVG-20010904/DTD/svg10.dtd">
<svg version="1.0" xmlns="http://www.w3.org/2000/svg"
 width="700.000000pt" height="700.000000pt" viewBox="0 0 700.000000 700.000000"
 preserveAspectRatio="xMidYMid meet">
<metadata>
Created by potrace 1.14, written by Peter Selinger 2001-2017
</metadata>
<g transform="translate(0.000000,700.000000) scale(0.100000,-0.100000)"
fill="#000000" stroke="none">
<path d="M2779 6447 c-41 -67 -98 -156 -128 -197 -30 -41 -66 -91 -80 -111
-99 -139 -425 -546 -537 -670 -28 -32 -50 -77 -40 -86 12 -13 106 -19 245 -17
173 2 244 21 356 95 62 40 201 144 225 169 3 3 26 22 52 43 26 21 53 43 60 50
7 7 47 39 88 72 41 33 86 70 100 81 90 77 223 184 229 184 3 0 74 -57 156
-126 83 -69 206 -171 275 -227 69 -56 127 -104 130 -107 20 -23 197 -146 250
-174 58 -30 77 -37 140 -53 31 -8 256 -9 318 -1 76 9 85 13 72 37 -18 35 -353
476 -453 596 -70 85 -216 292 -296 420 -54 86 -96 117 -179 132 -15 2 -226 6
-468 8 l-442 4 -73 -122z"/>
<path d="M3148 4835 c-2 -1 -55 -6 -118 -9 -63 -4 -128 -8 -145 -10 -16 -2
-61 -6 -100 -10 -60 -6 -161 -22 -270 -42 -205 -37 -459 -142 -585 -242 -192
-151 -273 -345 -224 -539 20 -80 49 -129 111 -189 90 -88 215 -142 453 -194
267 -58 345 -48 393 53 13 29 28 70 32 92 5 22 9 45 10 50 67 314 109 420 199
503 50 46 83 65 146 83 25 7 52 14 60 17 8 2 76 4 150 5 202 1 276 -28 344
-137 51 -79 103 -221 122 -331 2 -16 7 -37 9 -45 2 -8 7 -42 11 -75 4 -33 9
-73 11 -90 2 -16 7 -183 10 -371 l5 -341 -338 -1 c-187 -1 -366 -4 -400 -6
-33 -3 -99 -7 -146 -11 -46 -3 -93 -7 -104 -9 -10 -2 -48 -7 -84 -11 -36 -4
-74 -9 -85 -11 -11 -3 -38 -7 -60 -10 -78 -12 -311 -73 -395 -104 -476 -175
-738 -490 -787 -945 -9 -81 -9 -264 0 -350 20 -183 91 -390 185 -535 187 -288
484 -467 840 -507 107 -12 293 -6 397 12 292 52 443 130 667 344 176 168 271
230 324 211 50 -19 110 -155 163 -370 l38 -155 713 -3 712 -2 -4 165 c-4 160
-4 166 -28 190 -17 16 -40 25 -75 29 -66 7 -202 76 -258 131 -47 45 -71 102
-82 190 -3 28 -7 64 -9 80 -12 92 -23 444 -41 1350 -16 797 -29 1082 -56 1240
-22 130 -70 243 -162 380 -36 54 -62 85 -147 174 -153 160 -491 300 -810 335
-25 3 -70 8 -100 12 -50 6 -487 14 -492 9z m630 -2159 c7 -4 11 -15 8 -24 -3
-10 -8 -82 -11 -162 -24 -527 -38 -684 -72 -830 -8 -36 -16 -72 -18 -80 -8
-37 -58 -158 -87 -209 -49 -86 -189 -221 -268 -258 -222 -105 -540 -88 -659
35 -105 108 -153 296 -146 567 5 165 5 169 30 305 30 160 122 355 211 444 63
63 202 116 424 160 75 15 101 19 195 31 28 4 61 9 75 11 14 2 77 7 140 10 63
3 116 7 117 8 5 5 50 -1 61 -8z"/>
</g>
</svg>
