<?xml version="1.0" standalone="no"?>
<!DOCTYPE svg PUBLIC "-//W3C//DTD SVG 20010904//EN"
 "http://www.w3.org/TR/2001/REC-SVG-20010904/DTD/svg10.dtd">
<svg version="1.0" xmlns="http://www.w3.org/2000/svg"
 width="256.000000pt" height="256.000000pt" viewBox="0 0 256.000000 256.000000"
 preserveAspectRatio="xMidYMid meet">
<metadata>
Created by potrace 1.14, written by Peter Selinger 2001-2017
</metadata>
<g transform="translate(0.000000,256.000000) scale(0.100000,-0.100000)"
fill="#000000" stroke="none">
<path d="M83 2024 c0 -8 6 -14 14 -14 7 0 13 -4 13 -10 0 -5 -6 -8 -12 -6 -7
1 -10 1 -7 -1 3 -2 4 -15 1 -30 -3 -18 -1 -24 7 -19 6 4 9 11 6 16 -3 4 3 14
12 21 9 8 14 9 10 3 -4 -7 0 -14 8 -18 8 -3 15 -11 14 -18 0 -10 -2 -10 -6 0
-2 6 -9 12 -14 12 -6 0 -7 -5 -3 -12 4 -6 3 -9 -2 -6 -11 7 -30 -13 -28 -29 3
-23 4 -24 18 -11 8 7 12 16 10 20 -3 4 4 6 15 5 11 0 18 -4 15 -8 -2 -4 2 -10
8 -13 7 -3 4 -4 -8 -1 -33 8 -54 -23 -45 -65 4 -19 6 -47 5 -62 -2 -18 2 -28
10 -28 8 0 19 -7 26 -16 8 -8 22 -20 32 -25 16 -9 18 -6 13 26 -2 19 -1 35 4
35 10 0 9 -66 -2 -76 -4 -4 -17 2 -30 13 -39 35 -46 36 -43 6 2 -16 4 -42 5
-60 1 -27 4 -31 24 -27 l22 5 -22 -12 c-13 -7 -23 -16 -23 -21 0 -5 4 -7 9 -4
5 3 9 -6 8 -22 -2 -69 4 -153 11 -148 4 3 7 -9 6 -27 -1 -17 2 -39 7 -49 6
-11 6 -18 0 -18 -5 0 -5 -16 0 -40 5 -22 8 -43 7 -47 -1 -7 5 -61 17 -143 2
-14 7 -52 10 -85 4 -33 12 -66 18 -74 9 -12 9 -13 0 -7 -8 4 -11 2 -8 -6 6
-15 12 -69 14 -116 1 -24 5 -31 14 -26 9 6 9 5 0 -8 -7 -8 -11 -17 -8 -19 2
-3 7 -34 10 -69 4 -36 9 -73 11 -82 5 -17 63 -18 1028 -18 l1023 0 1 33 c2 48
11 109 17 115 2 3 0 11 -6 19 -6 7 -7 13 -2 13 5 0 10 6 11 13 4 59 11 142 13
142 2 0 5 20 12 90 3 28 8 66 11 85 3 19 8 58 11 85 3 28 7 64 10 80 3 17 7
53 10 80 5 53 12 119 20 172 4 26 2 31 -10 27 -8 -4 -21 -1 -29 5 -10 9 -17 6
-30 -13 -10 -15 -12 -27 -6 -31 6 -3 10 -12 9 -18 0 -9 -2 -8 -6 1 -2 6 -9 10
-13 7 -15 -9 -2 37 16 56 13 15 20 16 36 6 16 -10 22 -9 34 8 13 18 13 20 0
23 -9 2 -16 8 -16 14 0 5 6 8 13 5 9 -3 14 7 15 37 2 22 5 49 8 58 3 10 0 26
-6 38 -8 15 -8 25 0 38 9 15 10 14 5 -5 -4 -13 -2 -23 3 -23 5 0 8 10 8 23 -1
12 1 32 5 44 6 17 5 21 -6 16 -8 -3 -15 0 -15 6 0 6 7 11 17 11 9 0 14 3 10 6
-3 3 -2 16 3 28 6 17 4 25 -10 34 -21 13 -23 63 -2 70 6 2 12 -1 12 -8 0 -6
-5 -8 -11 -4 -7 4 -10 1 -7 -6 2 -8 10 -16 16 -18 16 -5 16 45 -1 51 -7 3 -5
6 6 6 14 1 26 31 12 31 -10 0 -49 -25 -74 -47 -14 -13 -32 -23 -39 -23 -7 0
-10 -5 -6 -11 4 -7 1 -10 -7 -7 -16 5 -39 -15 -39 -35 0 -24 -33 -48 -50 -36
-13 9 -12 10 2 5 11 -3 21 2 28 14 14 26 12 38 -3 20 -7 -8 -19 -16 -27 -18
-8 -2 -19 -10 -23 -18 -5 -8 -12 -12 -18 -9 -5 4 -9 2 -9 -4 0 -5 -21 -20 -46
-33 -25 -12 -52 -32 -60 -43 -8 -11 -17 -19 -19 -17 -11 5 -25 1 -25 -8 0 -5
7 -7 16 -3 12 4 15 1 13 -12 -2 -10 -10 -20 -17 -21 -7 -1 -8 0 -2 3 5 2 10 9
10 14 0 6 -4 8 -9 4 -5 -3 -13 -1 -16 5 -5 8 -11 7 -21 -1 -7 -6 -11 -16 -8
-21 3 -5 -2 -8 -11 -6 -10 2 -20 -4 -22 -12 -4 -13 -3 -13 6 0 13 18 15 1 2
-18 -6 -10 -13 -3 -26 25 -10 21 -19 45 -20 53 -2 15 -21 80 -32 110 -4 8 -7
18 -8 23 -2 4 -4 10 -5 15 -1 4 -3 12 -5 17 -1 6 -3 12 -4 15 -4 8 -11 43 -13
63 -1 9 -9 17 -16 17 -10 0 -12 -4 -4 -12 6 -8 6 -21 1 -33 -9 -18 -9 -18 -5
3 6 29 -5 28 -46 -7 -18 -16 -44 -39 -58 -51 -14 -12 -19 -18 -11 -14 9 5 12
3 7 -4 -4 -7 -13 -12 -19 -12 -7 0 -45 -31 -84 -69 -40 -37 -75 -66 -77 -64
-2 3 -12 -6 -20 -20 -16 -23 -63 -52 -78 -49 -5 1 -8 -2 -8 -6 0 -5 -6 -16
-13 -27 -11 -14 -16 -15 -22 -5 -5 9 -4 11 3 6 7 -4 12 -1 12 7 0 17 34 49 43
40 16 -15 5 11 -21 49 -15 22 -35 52 -44 66 -15 22 -18 24 -24 9 -3 -9 -11
-17 -17 -17 -7 0 -7 4 1 12 23 23 16 41 -43 101 -16 17 -23 27 -15 22 15 -8
-15 33 -33 46 -5 3 -8 10 -7 15 4 21 -21 13 -31 -10 -7 -14 -16 -26 -21 -26
-4 0 -8 -5 -8 -11 0 -6 -12 -25 -26 -42 l-25 -30 25 -22 c14 -12 26 -26 26
-30 0 -4 -6 -2 -14 4 -11 10 -17 8 -25 -6 -6 -10 -11 -13 -11 -6 0 6 5 15 10
18 14 9 2 25 -18 25 -15 0 -15 -2 -2 -10 13 -8 12 -10 -2 -10 -10 0 -18 -7
-18 -15 0 -9 -7 -18 -15 -21 -8 -4 -12 -10 -9 -15 3 -5 0 -9 -6 -9 -6 0 -16
-12 -23 -27 -6 -15 -27 -41 -44 -56 -18 -16 -31 -32 -30 -35 1 -4 -1 -8 -6 -9
-18 -7 -19 -1 -1 19 15 17 16 20 3 16 -9 -4 -22 -2 -30 3 -8 5 -9 9 -4 9 6 0
11 9 12 20 1 11 -2 20 -6 20 -5 0 -29 20 -54 45 -26 25 -52 45 -57 45 -6 0 -8
5 -4 11 4 7 -6 4 -22 -5 -45 -27 -59 -39 -72 -61 -10 -17 -11 -17 -12 -3 0 9
20 31 45 48 l45 31 -28 28 c-15 15 -28 27 -29 26 -2 -1 -27 23 -58 52 -56 54
-71 63 -73 41 0 -7 -4 -23 -7 -35 -5 -15 -3 -23 4 -23 7 0 9 5 6 11 -4 6 2 5
13 -2 12 -7 18 -17 16 -21 -3 -4 1 -8 9 -8 8 0 17 7 21 15 3 9 0 15 -9 15 -8
0 -15 5 -15 10 0 6 -5 9 -11 8 -6 -2 -14 4 -16 12 -4 13 -3 13 6 0 6 -8 11
-12 11 -7 0 4 11 0 25 -9 20 -13 23 -20 14 -35 -5 -11 -7 -24 -4 -29 3 -5 -1
-22 -10 -37 -15 -27 -15 -27 -9 -3 6 22 5 23 -10 11 -10 -9 -16 -10 -16 -2 0
6 5 11 11 11 5 0 7 6 3 13 -5 8 -2 8 9 -2 26 -21 20 -1 -7 24 -16 15 -29 19
-42 14 -10 -4 -13 -8 -6 -8 6 -1 12 -6 12 -12 0 -5 -5 -7 -10 -4 -6 3 -13 -1
-17 -10 -3 -10 0 -21 8 -26 11 -7 11 -9 -3 -9 -10 0 -18 -6 -19 -12 0 -12 -3
-22 -12 -60 -2 -7 -7 -23 -11 -36 -6 -17 -2 -27 16 -43 20 -18 21 -19 2 -10
-25 12 -73 3 -52 -10 10 -7 10 -9 0 -9 -7 0 -15 7 -19 15 -3 9 -26 30 -51 47
-25 17 -42 26 -38 20 4 -7 2 -12 -3 -12 -6 0 -11 6 -11 13 0 6 -25 29 -56 50
-30 21 -53 33 -49 27 3 -5 1 -10 -4 -10 -6 0 -11 7 -11 15 0 14 -11 19 -26 13
-3 -2 -10 5 -15 15 -6 9 -24 24 -41 33 -17 9 -40 25 -51 35 -14 13 -24 16 -33
9 -8 -8 -13 -6 -18 5 -3 9 -2 13 4 10 6 -3 10 -4 10 -2 0 3 -17 14 -38 25 -30
16 -39 17 -39 6z m1209 -32 c-7 -2 -10 -8 -7 -13 4 -5 -2 -6 -11 -2 -11 4 -13
8 -6 11 7 2 10 8 7 13 -4 5 2 6 11 2 11 -4 13 -8 6 -11z m1138 3 c-7 -8 -17
-15 -23 -15 -6 0 -2 7 9 15 25 19 30 19 14 0z m-2259 -38 c-10 -9 -11 -8 -5 6
3 10 9 15 12 12 3 -3 0 -11 -7 -18z m1136 1 c-3 -8 -6 -5 -6 6 -1 11 2 17 5
13 3 -3 4 -12 1 -19z m544 4 c-7 -2 -18 1 -23 6 -8 8 -4 9 13 5 13 -4 18 -8
10 -11z m-561 -12 c0 -5 -5 -12 -12 -16 -7 -4 -8 -3 -4 4 4 7 2 12 -3 12 -6 0
-11 4 -11 10 0 5 7 7 15 4 8 -4 15 -10 15 -14z m513 5 c-3 -9 -8 -14 -10 -11
-3 3 -2 9 2 15 9 16 15 13 8 -4z m88 -2 c13 -16 12 -17 -3 -4 -10 7 -18 15
-18 17 0 8 8 3 21 -13z m524 -2 c-4 -13 1 -24 16 -35 13 -9 20 -18 17 -21 -3
-3 -21 10 -41 29 -26 24 -30 32 -17 29 11 -3 20 0 20 6 0 6 3 11 6 11 3 0 3
-9 -1 -19z m-2224 -9 c-7 -14 -6 -25 4 -39 13 -18 12 -22 -4 -38 -15 -13 -24
-14 -40 -5 -22 11 -28 30 -10 30 5 0 8 -4 5 -9 -9 -14 16 -20 36 -9 17 8 17
10 2 33 -13 20 -14 28 -4 40 17 21 23 19 11 -3z m583 -8 c9 -24 7 -27 -9 -10
-17 17 -19 26 -6 26 5 0 12 -7 15 -16z m484 -5 c8 -12 9 -18 3 -14 -6 3 -11 1
-11 -4 0 -6 -5 -11 -11 -11 -8 0 -8 5 1 15 9 10 9 15 1 15 -6 0 -11 5 -11 10
0 17 14 11 28 -11z m553 1 c-13 -11 -28 -20 -35 -19 -6 0 -1 5 12 11 12 6 22
15 22 20 0 4 6 8 13 8 6 -1 1 -10 -12 -20z m47 1 c-7 -11 -15 -18 -18 -16 -3
2 -17 -5 -30 -15 -21 -16 -23 -22 -13 -39 10 -15 9 -22 -6 -35 -23 -21 -45
-20 -62 1 -13 15 -12 15 9 4 16 -8 27 -9 42 -1 19 10 19 12 4 35 -20 31 -28
31 -46 3 -14 -21 -39 -18 -37 5 0 9 2 9 6 0 7 -19 24 -15 21 5 -2 13 4 17 27
17 30 0 95 32 95 47 0 4 5 8 10 8 6 0 5 -8 -2 -19z m-1637 -6 c5 4 6 -1 2 -10
-5 -13 -7 -14 -14 -3 -5 7 -8 18 -8 23 0 6 3 4 6 -3 2 -6 9 -10 14 -7z m460
-12 c-12 -20 -14 -14 -5 12 4 9 9 14 11 11 3 -2 0 -13 -6 -23z m665 11 c18
-14 18 -15 -4 -4 -18 9 -26 7 -45 -10 -34 -32 -51 -40 -68 -28 -11 8 -11 9 4
4 11 -4 29 5 49 24 36 35 38 35 64 14z m997 -4 c-3 -11 -7 -20 -9 -20 -2 0 -4
9 -4 20 0 11 4 20 9 20 5 0 7 -9 4 -20z m27 0 c0 -11 -4 -20 -9 -20 -5 0 -7 9
-4 20 3 11 7 20 9 20 2 0 4 -9 4 -20z m-2120 -5 c0 -8 -4 -15 -10 -15 -5 0 -7
7 -4 15 4 8 8 15 10 15 2 0 4 -7 4 -15z m970 0 c0 -8 -2 -15 -4 -15 -2 0 -6 7
-10 15 -3 8 -1 15 4 15 6 0 10 -7 10 -15z m680 5 c8 -5 11 -10 5 -10 -5 0 -17
5 -25 10 -8 5 -10 10 -5 10 6 0 17 -5 25 -10z m-1070 -37 c0 -8 -8 -5 -20 7
-11 11 -20 22 -20 25 0 3 9 0 20 -7 11 -7 20 -18 20 -25z m-20 -17 c0 -6 -5
-5 -12 2 -17 17 -33 15 -18 -3 9 -10 9 -15 1 -15 -6 0 -11 5 -11 11 0 5 -5 7
-12 3 -7 -4 -8 -3 -4 4 4 7 3 12 -3 12 -5 0 -12 -6 -14 -12 -4 -10 -6 -10 -6
0 -1 7 6 15 14 18 8 4 12 10 9 15 -3 5 9 1 25 -9 17 -9 31 -21 31 -26z m523
37 c-7 -2 -13 -9 -13 -14 0 -6 5 -7 12 -3 7 4 8 3 4 -4 -4 -7 -2 -12 3 -12 6
0 11 -5 11 -11 0 -8 -6 -7 -17 2 -14 12 -16 12 -11 -2 3 -9 2 -22 -4 -30 -8
-11 -9 -11 -5 2 3 9 -2 27 -10 40 -9 12 -12 19 -6 16 6 -4 13 0 17 8 3 8 11
15 18 14 10 0 10 -2 1 -6z m553 -8 c4 -8 11 -12 17 -8 6 3 3 -4 -6 -16 -8 -13
-13 -31 -10 -40 4 -13 3 -13 -5 -2 -6 8 -7 21 -4 30 5 14 3 14 -11 2 -11 -9
-17 -10 -17 -2 0 6 5 11 11 11 5 0 7 5 3 12 -4 7 -3 8 4 4 7 -4 12 -3 12 3 0
5 -6 12 -12 14 -10 4 -10 6 0 6 7 1 15 -6 18 -14z m519 5 c-3 -5 -1 -10 4 -10
6 0 11 -5 11 -12 0 -9 -3 -9 -12 0 -7 7 -17 8 -28 2 -10 -5 -22 -5 -31 2 -12
8 -11 9 3 5 9 -3 24 1 35 8 22 17 26 18 18 5z m-2135 -20 c-6 -11 -16 -20 -23
-20 -7 0 -6 4 3 10 8 5 11 10 5 10 -5 0 -3 5 5 10 21 14 22 13 10 -10z m1100
10 c0 -5 -4 -10 -10 -10 -5 0 -10 5 -10 10 0 6 5 10 10 10 6 0 10 -4 10 -10z
m480 0 c0 -5 -4 -10 -10 -10 -5 0 -10 5 -10 10 0 6 5 10 10 10 6 0 10 -4 10
-10z m-1141 -44 c0 -6 -7 -1 -15 11 -15 21 -17 21 -42 6 l-27 -15 25 20 c23
19 26 19 42 5 10 -9 18 -21 17 -27z m1153 -19 c7 -2 10 -7 7 -11 -9 -9 -59 44
-59 63 0 9 8 3 19 -15 11 -18 25 -34 33 -37z m474 49 c20 -21 17 -28 -6 -14
-11 7 -20 16 -20 20 0 12 10 9 26 -6z m-2026 -37 c0 -10 5 -21 10 -24 6 -3 10
-11 10 -18 0 -14 -21 18 -39 57 -11 26 -10 28 3 16 9 -7 16 -21 16 -31z m1080
32 c0 -10 -52 -63 -57 -58 -3 4 48 66 55 67 1 0 2 -4 2 -9z m-1262 -26 c-3 -3
-9 2 -12 12 -6 14 -5 15 5 6 7 -7 10 -15 7 -18z m106 10 c7 -18 -26 -37 -49
-29 -24 10 4 25 30 17 17 -5 18 -4 6 11 -7 9 -9 16 -3 16 5 0 12 -7 16 -15z
m1033 -1 c-26 -14 -26 -16 -11 -39 17 -26 38 -32 49 -14 8 12 45 -17 45 -35 0
-6 -9 0 -19 13 -13 17 -20 20 -26 11 -4 -6 -16 -9 -27 -6 -11 2 -32 -2 -47
-11 l-26 -15 25 20 c21 18 23 24 13 40 -9 16 -8 22 5 36 9 9 23 16 32 16 8 -1
3 -7 -13 -16z m975 3 c-12 -7 -19 -16 -16 -20 4 -4 2 -7 -4 -7 -7 0 -12 4 -12
10 0 10 29 29 45 29 6 0 0 -5 -13 -12z m95 -27 c7 -8 12 -22 13 -30 0 -8 -9 0
-20 18 -11 17 -24 32 -30 32 -5 0 -10 5 -10 11 0 12 26 -5 47 -31z m73 29 c13
-9 13 -10 0 -6 -8 2 -23 0 -32 -5 -17 -8 -17 -10 -2 -34 13 -19 20 -22 30 -13
10 8 14 8 14 0 0 -6 -5 -11 -11 -11 -5 0 -7 -6 -3 -12 6 -10 3 -9 -8 0 -14 11
-21 10 -44 -4 -15 -10 -36 -20 -48 -21 -16 -2 -18 -1 -6 6 8 5 17 8 20 6 3 -2
17 5 30 15 21 16 23 22 13 38 -9 16 -8 22 5 36 19 19 22 19 42 5z m-2133 -13
c-3 -8 -1 -17 6 -20 7 -2 1 -4 -12 -3 -13 1 -26 -3 -28 -9 -2 -7 7 -10 26 -8
40 5 47 -10 22 -42 -24 -31 -28 -24 -6 10 15 23 15 24 -10 24 -20 0 -23 -3
-14 -14 8 -10 8 -14 0 -14 -6 0 -11 5 -11 11 0 5 -4 8 -9 5 -10 -6 -8 21 3 46
5 10 12 15 17 12 5 -3 9 0 9 5 0 6 3 11 6 11 3 0 4 -6 1 -14z m433 -32 c0 -4
-6 -1 -14 5 -11 9 -13 6 -13 -13 0 -21 2 -24 18 -16 23 13 29 13 29 -2 0 -6
-3 -8 -7 -5 -3 4 -12 2 -20 -5 -19 -15 -28 -3 -29 42 -2 37 -1 37 17 19 11
-11 19 -22 19 -25z m1572 7 c-5 -14 -3 -14 11 -2 11 9 17 10 17 2 0 -6 -5 -11
-11 -11 -5 0 -7 -5 -3 -12 4 -7 3 -8 -4 -4 -7 4 -12 3 -12 -3 0 -5 6 -12 13
-14 9 -4 9 -6 -1 -6 -7 -1 -15 6 -18 14 -4 8 -11 12 -17 8 -6 -3 -3 4 6 16 8
13 13 31 10 40 -4 13 -3 13 5 2 6 -8 7 -21 4 -30z m-2112 -14 c0 -5 -4 -6 -9
-3 -5 4 -11 0 -13 -6 -3 -7 -5 1 -5 19 0 29 2 30 13 15 8 -9 14 -21 14 -25z
m196 25 c1 -7 0 -8 -3 -2 -2 5 -9 10 -14 10 -6 0 -5 -8 1 -20 10 -19 12 -19
38 -4 l27 16 -25 -20 c-26 -22 -41 -17 -60 18 -7 14 -5 17 12 16 12 0 23 -7
24 -14z m291 -11 c0 -25 -2 -27 -14 -15 -12 11 -12 16 -1 28 7 9 13 15 14 16
0 0 1 -13 1 -29z m108 20 c2 -5 -7 -8 -20 -8 -14 0 -25 2 -25 6 0 10 39 11 45
2z m88 -3 c-13 -6 -23 -15 -23 -20 0 -4 -6 -8 -12 -8 -7 1 -2 10 11 20 13 11
28 20 35 19 6 0 1 -5 -11 -11z m376 -38 c0 -9 -6 -4 -14 10 -19 33 -19 49 0
24 8 -10 14 -26 14 -34z m71 42 c0 -4 -10 -9 -22 -9 -18 -2 -20 0 -8 7 18 12
30 13 30 2z m395 -2 c-3 -5 -11 -10 -16 -10 -6 0 -7 5 -4 10 3 6 11 10 16 10
6 0 7 -4 4 -10z m78 3 c-7 -2 -19 -2 -25 0 -7 3 -2 5 12 5 14 0 19 -2 13 -5z
m157 3 c0 -2 -7 -6 -15 -10 -8 -3 -15 -1 -15 4 0 6 7 10 15 10 8 0 15 -2 15
-4z m330 -6 c0 -5 -5 -10 -11 -10 -5 0 -7 5 -4 10 3 6 8 10 11 10 2 0 4 -4 4
-10z m-1347 -7 c3 -5 -9 -9 -26 -10 -26 -1 -28 0 -12 7 26 11 33 12 38 3z
m250 -10 c-6 -16 -5 -16 10 -4 11 9 17 10 17 2 0 -6 -5 -11 -11 -11 -5 0 -7
-5 -3 -12 4 -7 3 -8 -4 -4 -7 4 -12 3 -12 -3 0 -5 6 -12 13 -14 9 -4 9 -6 -1
-6 -7 -1 -15 6 -18 14 -4 8 -11 12 -16 9 -6 -4 -2 5 7 20 20 30 27 34 18 9z
m1072 -7 c10 4 6 -4 -10 -22 -24 -26 -25 -29 -9 -41 9 -7 22 -14 28 -16 6 -2
8 -7 5 -11 -3 -3 -18 3 -32 14 -23 18 -25 24 -14 41 10 17 8 23 -13 41 l-25
20 27 -16 c15 -9 34 -13 43 -10z m173 15 c11 -7 10 -9 -3 -14 -9 -4 -14 -3
-10 2 3 5 -1 12 -7 14 -7 3 -8 6 -3 6 6 0 16 -3 23 -8z m-992 -17 c-4 -12 -2
-15 9 -10 23 8 18 0 -11 -19 -15 -9 -24 -13 -20 -7 3 5 -1 12 -9 16 -8 3 -15
11 -14 18 0 10 2 10 6 1 2 -7 9 -13 14 -13 6 0 7 5 3 12 -4 7 -3 8 4 4 7 -4
12 -2 12 3 0 6 3 11 6 11 3 0 3 -7 0 -16z m250 -12 c-3 -5 -17 -9 -32 -9 -17
0 -22 2 -13 7 6 5 18 6 26 3 9 -4 11 0 7 13 -6 15 -4 16 6 7 7 -6 10 -16 6
-21z m37 10 c-6 -4 -20 -23 -32 -42 -11 -19 -21 -30 -21 -25 0 17 51 87 58 80
4 -3 1 -9 -5 -13z m147 -14 c0 -12 -10 -9 -26 6 -20 21 -17 28 6 14 11 -7 20
-16 20 -20z m84 24 c2 -4 -5 -9 -17 -9 -17 -2 -19 0 -7 7 18 12 18 12 24 2z
m-1160 -44 c18 -15 19 -19 6 -28 -18 -12 -21 -12 -40 0 -8 5 -11 12 -7 17 5 4
12 1 16 -6 5 -7 14 -10 21 -6 8 5 5 11 -9 22 -12 8 -21 22 -20 31 0 14 2 14 6
2 3 -8 15 -23 27 -32z m73 30 c-2 -7 -1 -20 4 -29 6 -11 4 -21 -6 -29 -21 -17
-19 -37 5 -50 11 -6 18 -15 15 -20 -3 -5 4 -12 16 -15 11 -4 18 -9 16 -12 -3
-2 -15 1 -27 7 -12 6 -19 14 -16 17 10 11 -32 33 -49 27 -9 -4 -3 8 14 26 21
23 28 38 22 49 -8 16 -4 41 6 41 2 0 3 -6 0 -12z m450 6 c-3 -3 -12 -4 -19 -1
-8 3 -5 6 6 6 11 1 17 -2 13 -5z m873 -3 c0 -6 -5 -13 -12 -17 -7 -4 -8 -3 -4
4 4 7 3 12 -2 12 -16 0 -22 -13 -11 -27 9 -9 8 -13 0 -13 -6 0 -11 5 -11 11 0
5 -6 7 -12 3 -7 -4 -4 2 6 14 19 22 46 30 46 13z m-1983 -23 c-3 -8 -6 -5 -6
6 -1 11 2 17 5 13 3 -3 4 -12 1 -19z m30 0 c-3 -8 -6 -5 -6 6 -1 11 2 17 5 13
3 -3 4 -12 1 -19z m223 -8 c7 -16 16 -30 21 -30 5 0 9 -5 9 -11 0 -8 -4 -8
-14 0 -11 9 -13 6 -13 -13 0 -21 2 -24 18 -16 12 7 20 6 25 -2 4 -7 4 -10 -1
-6 -4 4 -14 3 -21 -3 -20 -17 -34 -1 -30 34 3 18 -2 42 -10 55 -8 12 -10 22
-5 22 5 0 14 -13 21 -30z m450 19 c0 6 5 11 10 11 17 0 11 -14 -11 -28 -12 -8
-18 -9 -14 -3 3 6 1 11 -4 11 -6 0 -11 5 -11 11 0 8 5 8 15 -1 10 -9 15 -9 15
-1z m484 -23 c10 -16 13 -26 8 -22 -6 3 -12 0 -15 -6 -3 -7 -5 -4 -5 7 1 11
-3 29 -7 40 -10 24 -5 19 19 -19z m404 23 c11 6 24 6 32 1 15 -10 12 -10 -50
-10 -62 0 -65 0 -50 10 8 5 21 5 32 -1 12 -6 24 -6 36 0z m145 -3 c22 8 29
-12 9 -27 -16 -13 -16 -13 -2 5 14 18 13 19 -4 13 -10 -4 -24 -2 -32 3 -9 9
-15 6 -24 -10 -6 -12 -14 -19 -17 -16 -4 3 2 15 12 26 13 14 22 17 30 10 7 -6
19 -8 28 -4z m253 -28 c-20 -28 -21 -44 -1 -28 19 16 20 3 1 -15 -11 -12 -15
-10 -25 11 -6 14 -7 23 -2 20 5 -3 15 8 22 26 7 17 15 26 17 20 2 -6 -4 -22
-12 -34z m-1506 -9 c0 -17 -21 -20 -42 -5 -12 9 -18 16 -12 16 5 0 15 -5 22
-12 6 -6 15 -9 18 -5 4 4 -4 16 -17 27 l-24 21 28 -17 c15 -9 27 -20 27 -25z
m150 26 c13 -16 6 -35 -13 -34 -9 0 -9 2 0 5 7 3 9 12 6 20 -3 7 -9 11 -14 8
-5 -3 -9 0 -9 5 0 16 15 13 30 -4z m390 5 c0 -5 -4 -10 -10 -10 -5 0 -10 5
-10 10 0 6 5 10 10 10 6 0 10 -4 10 -10z m1120 0 c0 -5 -4 -10 -10 -10 -5 0
-10 5 -10 10 0 6 5 10 10 10 6 0 10 -4 10 -10z m-2164 -9 c-4 -5 -1 -11 6 -13
7 -3 5 -7 -6 -11 -11 -5 -15 -3 -10 5 5 8 1 9 -12 5 -18 -7 -18 -7 0 8 23 17
30 19 22 6z m177 -8 c-9 -3 -9 -11 3 -28 15 -23 17 -23 40 -9 13 9 21 20 18
25 -3 5 -1 9 4 9 5 0 9 -14 9 -30 0 -20 -3 -26 -8 -18 -7 10 -12 11 -28 1 -17
-11 -23 -9 -40 14 l-21 26 -21 -26 c-17 -23 -23 -25 -40 -14 -16 10 -21 9 -28
-1 -5 -8 -8 -2 -8 18 0 16 4 30 9 30 4 0 7 -4 6 -9 -2 -5 6 -16 16 -24 18 -13
23 -11 54 20 19 19 37 31 41 27 3 -4 0 -9 -6 -11z m64 11 c-3 -3 -12 -4 -19
-1 -8 3 -5 6 6 6 11 1 17 -2 13 -5z m747 -41 c-18 -18 -29 -16 -14 2 7 8 9 15
4 15 -15 0 -30 -14 -43 -37 -9 -18 -8 -24 7 -35 10 -7 22 -20 27 -28 4 -8 -5
-3 -22 13 -16 15 -33 24 -36 20 -4 -3 0 8 9 26 9 18 22 35 30 38 8 3 11 9 8
14 -3 5 -10 6 -16 3 -7 -4 -8 -2 -4 4 4 7 15 6 35 -6 23 -13 26 -18 15 -29z
m299 40 c-20 -7 -15 -23 5 -17 16 5 15 5 -1 -6 -10 -7 -16 -19 -13 -28 3 -9 2
-23 -3 -30 -13 -21 -23 15 -11 37 5 10 7 21 4 24 -9 8 5 27 19 26 9 0 9 -2 0
-6z m812 -22 c-9 -9 35 -32 47 -25 7 4 1 -7 -12 -25 -23 -33 -23 -33 -1 -26
11 3 21 2 21 -3 0 -5 -9 -9 -20 -8 -20 1 -22 8 -13 34 6 15 -38 59 -56 56 -6
-1 -7 0 -1 3 5 2 7 9 4 15 -3 5 3 4 14 -3 12 -7 19 -15 17 -18z m-1898 -13
c-3 -7 -5 -2 -5 12 0 14 2 19 5 13 2 -7 2 -19 0 -25z m558 22 c-3 -5 -1 -10 4
-10 6 0 11 6 11 13 0 9 2 9 9 -1 4 -8 12 -13 17 -12 5 1 10 -4 12 -12 2 -8 1
-9 -5 -3 -4 6 -19 11 -32 10 -13 0 -26 6 -28 13 -3 6 0 12 7 12 6 0 8 -4 5
-10z m425 -36 c0 -4 -6 -1 -14 5 -11 9 -13 6 -13 -14 0 -25 0 -25 23 -10 13 8
24 12 24 8 0 -12 -41 -35 -48 -28 -4 4 -8 24 -8 45 -2 37 -1 37 17 19 11 -11
19 -22 19 -25z m289 35 c-11 -7 -12 -12 -2 -28 10 -16 8 -22 -8 -37 -14 -13
-23 -14 -30 -7 -13 13 -4 33 14 32 9 0 9 -2 0 -6 -7 -2 -13 -9 -13 -14 0 -6 8
-5 20 1 20 11 20 11 1 38 l-19 27 26 2 c18 1 21 -1 11 -8z m65 -5 c3 -8 2 -12
-4 -9 -6 3 -10 1 -10 -4 0 -6 -5 -11 -10 -11 -6 0 -5 8 2 20 15 24 14 24 22 4z
m26 6 c0 -5 -2 -10 -4 -10 -3 0 -8 5 -11 10 -3 6 -1 10 4 10 6 0 11 -4 11 -10z
m74 -5 c-7 -18 -20 -19 -30 -3 -4 7 -3 8 4 4 7 -4 12 -2 12 3 0 6 4 11 10 11
5 0 7 -7 4 -15z m32 -22 c-3 -4 -6 -1 -6 6 0 7 -4 9 -10 6 -6 -4 -7 1 -3 11 6
15 7 15 15 -1 6 -9 7 -19 4 -22z m50 -2 c0 -22 -4 -42 -8 -46 -7 -7 -48 16
-48 28 0 4 11 0 24 -8 23 -15 24 -15 24 10 0 20 -3 23 -14 14 -20 -16 -17 -3
4 20 9 11 18 20 18 20 1 1 1 -17 0 -38z m-1381 19 c3 -5 1 -10 -4 -10 -6 0
-11 5 -11 10 0 6 2 10 4 10 3 0 8 -4 11 -10z m771 -1 c5 -8 8 -8 14 0 3 7 7
-2 7 -20 l0 -31 -14 26 c-7 14 -19 26 -25 26 -7 0 -6 -5 2 -15 16 -19 3 -20
-16 -1 -11 11 -11 16 -1 19 20 8 25 8 33 -4z m144 1 c0 -5 -5 -10 -11 -10 -5
0 -7 5 -4 10 3 6 8 10 11 10 2 0 4 -4 4 -10z m354 -49 c-3 -9 -7 -21 -8 -27
-1 -6 -10 -24 -20 -39 -18 -28 -18 -28 4 -45 17 -13 20 -19 10 -25 -9 -5 -11
-4 -6 3 7 11 -5 16 -31 13 -6 -1 -14 3 -18 9 -4 6 1 7 12 4 12 -4 10 1 -7 15
l-25 20 -17 -22 c-10 -12 -18 -18 -18 -13 0 5 7 17 16 27 13 15 20 16 35 6 17
-10 23 -8 39 13 10 14 17 26 15 29 -3 2 0 12 6 23 7 14 6 22 -6 34 -8 8 -15
20 -15 26 0 6 9 1 20 -12 12 -14 18 -31 14 -39z m152 1 c-3 -3 -6 1 -6 9 0 11
-2 11 -8 1 -6 -8 -9 -1 -9 19 l0 31 14 -27 c8 -15 12 -29 9 -33z m194 54 c0
-3 -4 -8 -10 -11 -5 -3 -10 -1 -10 4 0 6 5 11 10 11 6 0 10 -2 10 -4z m253 -8
c-13 -6 -23 -15 -23 -20 0 -4 -6 -8 -12 -8 -7 1 -2 10 11 20 13 11 28 20 35
19 6 0 1 -5 -11 -11z m-1505 -24 c-7 -15 -14 -21 -16 -15 -2 7 2 18 8 26 18
22 21 18 8 -11z m738 14 c4 -7 3 -9 -1 -5 -5 4 -15 -3 -22 -15 -8 -15 -12 -18
-13 -7 0 8 5 20 12 27 15 15 15 15 24 0z m-1416 -2 c0 -3 -4 -8 -10 -11 -5 -3
-10 -1 -10 4 0 6 5 11 10 11 6 0 10 -2 10 -4z m328 -16 c-10 -15 -10 -22 0
-32 9 -9 8 -16 -5 -30 -9 -10 -21 -18 -26 -18 -6 0 -22 -13 -36 -28 -14 -15
-20 -21 -13 -12 17 23 15 38 -8 50 -11 6 -18 15 -15 20 3 5 -4 12 -16 15 -11
4 -18 9 -16 12 3 2 15 -1 27 -7 12 -6 19 -14 16 -17 -3 -4 3 -12 14 -20 17
-12 24 -12 50 2 l31 16 -21 29 c-15 21 -17 28 -7 24 8 -3 18 -1 22 5 3 6 8 11
11 11 2 0 -1 -9 -8 -20z m187 10 c4 -6 11 -8 16 -5 5 4 9 1 9 -4 0 -14 -6 -14
-29 -1 -16 8 -18 5 -18 -16 0 -19 2 -22 13 -13 10 8 14 8 14 0 0 -6 -4 -11
-10 -11 -5 0 -13 0 -17 0 -9 0 -13 41 -6 53 6 10 21 9 28 -3z m205 -1 c0 -5 5
-7 12 -3 7 4 8 3 4 -4 -4 -7 -3 -12 3 -12 5 0 12 6 14 13 4 9 6 9 6 -1 1 -7
-6 -15 -14 -18 -8 -4 -12 -11 -9 -16 4 -6 -5 -2 -20 7 -26 17 -33 12 -17 -13
4 -8 12 -13 17 -12 5 1 9 -3 11 -9 1 -7 0 -8 -4 -1 -2 5 -9 8 -13 5 -11 -7
-33 32 -25 45 3 5 13 6 23 3 15 -6 15 -5 3 10 -9 11 -10 17 -2 17 6 0 11 -5
11 -11z m303 4 c-7 -2 -19 -2 -25 0 -7 3 -2 5 12 5 14 0 19 -2 13 -5z m257 -3
c0 -5 -2 -10 -4 -10 -3 0 -8 5 -11 10 -3 6 -1 10 4 10 6 0 11 -4 11 -10z m256
1 c-3 -5 1 -11 9 -15 8 -3 15 -11 14 -18 0 -10 -2 -10 -6 0 -2 6 -9 12 -14 12
-6 0 -7 -5 -3 -12 4 -7 3 -8 -4 -4 -7 4 -12 2 -12 -3 0 -6 -5 -11 -11 -11 -8
0 -7 6 2 17 12 14 12 16 -2 11 -9 -3 -22 -2 -30 4 -11 8 -11 9 3 5 9 -3 24 1
35 8 21 17 26 18 19 6z m228 -8 c4 -10 0 -23 -11 -32 -16 -15 -16 -15 -4 2 11
14 11 20 1 32 -7 9 -8 15 -2 15 5 0 13 -8 16 -17z m172 8 c-3 -5 1 -11 9 -15
8 -3 15 -11 14 -18 0 -10 -2 -10 -6 0 -2 6 -9 12 -14 12 -6 0 -7 -5 -3 -12 4
-7 3 -8 -4 -4 -7 4 -12 2 -12 -3 0 -6 -5 -11 -11 -11 -8 0 -8 5 1 15 8 9 9 15
2 15 -6 0 -14 -5 -17 -10 -4 -6 -13 -7 -23 -1 -9 4 -24 6 -32 4 -13 -4 -13 -3
-1 6 9 5 22 6 31 1 10 -6 24 -2 40 11 28 21 34 23 26 10z m281 3 c-3 -3 -12
-4 -19 -1 -8 3 -5 6 6 6 11 1 17 -2 13 -5z m-1597 -8 c0 -3 -4 -8 -10 -11 -5
-3 -10 -1 -10 4 0 6 5 11 10 11 6 0 10 -2 10 -4z m357 -8 c-2 -7 0 -22 5 -33
9 -19 8 -19 -6 -2 -8 11 -12 25 -9 33 6 17 16 19 10 2z m71 -31 c-8 -15 -4
-24 19 -46 16 -14 22 -20 13 -13 -24 17 -35 15 -54 -10 l-17 -23 13 25 c12 24
17 52 18 95 1 16 3 17 10 5 5 -8 5 -22 -2 -33z m169 37 c-3 -3 -12 -4 -19 -1
-8 3 -5 6 6 6 11 1 17 -2 13 -5z m410 0 c-3 -3 -12 -4 -19 -1 -8 3 -5 6 6 6
11 1 17 -2 13 -5z m550 -8 c-3 -7 2 -24 10 -37 9 -12 11 -19 5 -15 -7 4 -12 2
-12 -3 0 -6 -5 -11 -11 -11 -8 0 -8 4 -1 13 6 7 7 18 2 26 -8 14 -3 41 7 41 3
0 3 -6 0 -14z m-2037 -6 c0 -5 -4 -10 -10 -10 -5 0 -10 5 -10 10 0 6 5 10 10
10 6 0 10 -4 10 -10z m205 0 c-3 -5 -1 -10 4 -10 6 0 11 -5 11 -11 0 -8 -5 -8
-15 1 -13 11 -12 30 1 30 3 0 2 -4 -1 -10z m120 -9 c-7 -22 34 -59 46 -40 4 7
8 5 12 -4 7 -20 -28 -14 -53 8 -9 8 -20 12 -24 8 -4 -5 -2 4 5 20 14 31 23 36
14 8z m92 -3 c-3 -8 -6 -5 -6 6 -1 11 2 17 5 13 3 -3 4 -12 1 -19z m30 0 c-3
-8 -6 -5 -6 6 -1 11 2 17 5 13 3 -3 4 -12 1 -19z m213 -14 c0 -3 -7 -1 -15 6
-18 15 -20 -1 -3 -18 8 -8 8 -15 0 -25 -9 -10 -8 -17 1 -26 9 -10 8 -11 -5 -6
-20 8 -23 21 -8 30 6 3 10 11 10 17 0 6 -9 3 -20 -7 -11 -10 -20 -13 -20 -7 0
7 5 12 10 12 6 0 9 3 8 8 -1 4 1 17 6 30 6 19 9 20 22 8 8 -8 14 -18 14 -22z
m230 24 c0 -4 -9 -8 -20 -8 -11 0 -20 4 -20 8 0 4 9 8 20 8 11 0 20 -4 20 -8z
m335 3 c-3 -6 4 -15 15 -21 11 -6 18 -15 15 -20 -3 -5 3 -10 12 -13 17 -4 17
-4 0 -3 -10 1 -17 5 -17 10 1 5 -10 16 -25 26 -19 12 -23 19 -13 23 19 8 20 8
13 -2z m685 -17 c0 -2 -8 -1 -17 4 -10 5 -25 7 -33 5 -13 -4 -13 -3 -1 6 14 9
51 -2 51 -15z m15 -12 c-15 -16 -16 -15 -4 12 7 15 15 23 17 16 3 -7 -3 -19
-13 -28z m170 29 c2 -5 -7 -8 -20 -8 -14 0 -25 2 -25 6 0 10 39 11 45 2z
m-1281 -23 c9 -12 16 -27 16 -33 0 -5 -8 2 -18 18 -10 15 -22 24 -25 20 -4 -3
-7 -1 -7 5 0 19 18 14 34 -10z m124 -4 c-7 -15 -14 -21 -16 -15 -2 7 2 18 8
26 18 22 21 18 8 -11z m1073 -20 c-8 -14 -11 -15 -10 -4 3 30 -1 41 -13 34 -7
-5 -8 -3 -3 5 6 10 11 10 22 -2 12 -12 13 -19 4 -33z m-2195 27 c-3 -5 6 -12
20 -15 15 -4 24 -9 22 -12 -9 -9 -59 16 -53 26 3 5 8 10 11 10 3 0 3 -4 0 -9z
m96 -4 c-12 -7 -20 -16 -16 -19 3 -4 -4 -11 -15 -18 -25 -13 -27 -27 -5 -51
15 -16 14 -17 -10 -15 -15 2 -30 7 -34 11 -4 4 4 4 17 0 23 -7 23 -7 7 16 -9
13 -22 24 -28 24 -6 0 -13 7 -15 15 -3 9 -1 11 4 5 13 -16 33 -16 56 0 12 8
17 15 12 15 -6 0 -1 7 9 15 11 8 25 15 30 15 6 -1 1 -6 -12 -13z m93 3 c10 9
15 9 15 1 0 -6 -5 -11 -11 -11 -5 0 -8 -4 -5 -8 2 -4 0 -14 -5 -22 -8 -13 -10
-13 -18 0 -5 8 -7 18 -5 22 3 4 0 8 -5 8 -6 0 -11 5 -11 11 0 8 5 8 15 -1 12
-10 18 -10 30 0z m1072 4 c-3 -3 -12 -4 -19 -1 -8 3 -5 6 6 6 11 1 17 -2 13
-5z m263 -4 c0 -6 15 -19 33 -30 17 -11 25 -20 17 -20 -25 1 -86 60 -61 60 6
0 11 -5 11 -10z m147 4 c-3 -3 -12 -4 -19 -1 -8 3 -5 6 6 6 11 1 17 -2 13 -5z
m-1542 -23 c-3 -6 -11 -9 -16 -6 -5 4 -9 4 -9 1 0 -2 -3 -13 -7 -23 -7 -17 -6
-17 21 1 16 10 26 14 22 8 -3 -5 1 -12 9 -16 8 -3 15 -11 14 -18 0 -10 -2 -10
-6 0 -2 6 -9 12 -14 12 -6 0 -7 -5 -3 -12 4 -7 3 -8 -4 -4 -7 4 -12 2 -12 -3
0 -6 -5 -11 -11 -11 -8 0 -7 6 2 17 12 15 12 16 -3 10 -10 -3 -20 -2 -23 3 -8
13 14 52 26 45 5 -4 9 -1 9 6 0 7 3 10 6 6 3 -3 3 -11 -1 -16z m105 4 c11 7
33 -32 25 -45 -3 -5 -13 -6 -23 -3 -15 6 -15 5 -3 -10 9 -11 10 -17 2 -17 -6
0 -11 5 -11 11 0 5 -5 7 -12 3 -7 -4 -8 -3 -4 4 4 7 3 12 -3 12 -5 0 -12 -6
-14 -12 -4 -10 -6 -10 -6 0 -1 7 6 15 14 18 8 4 12 11 9 16 -4 6 5 2 20 -7 26
-17 33 -12 17 13 -4 8 -12 13 -17 12 -5 -1 -9 3 -11 10 -1 6 0 7 4 0 2 -5 9
-8 13 -5z m194 0 c-4 -8 -11 -15 -16 -15 -6 0 -5 6 2 15 7 8 14 15 16 15 2 0
1 -7 -2 -15z m734 -3 c2 -7 -1 -12 -8 -12 -6 0 -9 4 -6 9 4 5 1 12 -4 14 -6 3
-5 4 2 3 6 -1 14 -8 16 -14z m52 -2 c-47 -27 -55 -38 -43 -58 10 -17 9 -23 -8
-38 -10 -9 -22 -15 -25 -11 -3 3 4 11 16 17 l21 11 -25 34 c-14 19 -26 37 -26
41 0 4 6 -1 14 -11 13 -19 15 -18 47 7 19 14 36 24 39 21 3 -2 -2 -8 -10 -13z
m188 -5 c-3 -3 -9 2 -12 12 -6 14 -5 15 5 6 7 -7 10 -15 7 -18z m302 4 c0 -6
-4 -7 -10 -4 -5 3 -10 11 -10 16 0 6 5 7 10 4 6 -3 10 -11 10 -16z m62 14 c-6
-2 -10 -9 -6 -14 3 -5 0 -9 -5 -9 -12 0 -14 13 -4 23 3 4 11 7 17 6 6 0 5 -3
-2 -6z m105 -8 c-4 -8 -2 -17 3 -20 6 -4 10 -12 10 -18 0 -7 -7 -4 -15 6 -12
17 -11 47 2 47 3 0 3 -7 0 -15z m33 4 c0 -5 5 -7 11 -4 6 4 5 -2 -2 -13 -15
-24 -18 -23 -24 7 -2 11 0 21 6 21 5 0 9 -5 9 -11z m127 -36 c-11 -12 -16 -12
-22 -2 -5 8 -4 10 3 5 12 -7 16 4 13 34 -1 11 2 10 10 -4 9 -14 8 -21 -4 -33z
m33 36 c0 -5 5 -7 12 -3 6 4 4 -3 -5 -15 -8 -13 -13 -31 -10 -40 4 -13 3 -14
-5 -2 -7 9 -7 21 -2 31 6 11 5 21 -2 28 -9 9 -9 12 0 12 7 0 12 -5 12 -11z
m207 5 c-3 -3 -12 -4 -19 -1 -8 3 -5 6 6 6 11 1 17 -2 13 -5z m-1932 -14 c-27
-12 -43 -12 -25 0 8 5 22 9 30 9 10 0 8 -3 -5 -9z m255 6 c0 -3 -4 -8 -10 -11
-5 -3 -10 -1 -10 4 0 6 5 11 10 11 6 0 10 -2 10 -4z m13 -23 c-17 -26 -17 -27
0 -20 10 4 16 3 12 -2 -3 -5 0 -11 7 -13 7 -3 5 -7 -6 -11 -10 -4 -15 -3 -11
3 6 9 -8 14 -28 11 -5 -1 0 12 9 29 10 16 22 30 26 30 5 0 0 -12 -9 -27z m66
17 c-6 -5 -18 -6 -26 -3 -19 8 -16 11 13 11 17 0 22 -3 13 -8z m596 1 c-3 -5
-1 -12 4 -16 6 -3 7 -13 4 -21 -4 -12 -8 -13 -13 -4 -5 9 -10 6 -15 -9 -3 -11
-11 -21 -16 -21 -6 0 -2 12 9 28 10 15 17 33 15 40 -3 6 0 12 7 12 6 0 9 -4 5
-9z m243 -11 c7 -11 10 -20 6 -20 -7 0 -34 27 -34 34 0 13 16 5 28 -14z m82
10 c0 -5 -4 -10 -10 -10 -5 0 -10 5 -10 10 0 6 5 10 10 10 6 0 10 -4 10 -10z
m60 4 c0 -3 -5 -15 -11 -26 -9 -17 -9 -20 3 -16 8 3 22 0 33 -8 10 -8 14 -14
8 -14 -7 0 -14 4 -18 10 -3 5 -12 7 -19 4 -19 -7 -30 14 -17 30 6 7 8 16 4 19
-3 4 -1 7 5 7 7 0 12 -3 12 -6z m360 -7 c0 -5 -10 -5 -21 -2 -22 7 -22 7 1
-26 13 -18 19 -29 12 -25 -7 4 -21 1 -33 -7 -14 -11 -17 -17 -9 -22 7 -4 16
-1 21 6 4 7 11 10 16 6 4 -5 1 -12 -7 -17 -19 -12 -22 -12 -40 0 -13 9 -11 13
10 30 21 16 23 22 13 38 -6 11 -9 22 -6 25 8 9 43 4 43 -6z m-959 -34 c-10
-16 -11 -15 -5 7 6 22 5 23 -10 11 -9 -8 -16 -9 -16 -3 0 14 23 22 34 12 4 -5
3 -16 -3 -27z m909 -2 c-1 -12 -4 -10 -13 7 -7 12 -17 19 -22 15 -4 -4 -5 -2
-1 5 10 17 36 -3 36 -27z m-1560 14 c11 -13 10 -14 -4 -9 -9 3 -16 10 -16 15
0 13 6 11 20 -6z m243 3 c3 -10 7 -10 20 0 9 8 21 11 26 8 11 -7 10 -56 -2
-56 -4 0 -11 0 -17 0 -5 0 -10 5 -10 11 0 8 4 8 14 0 11 -9 14 -6 14 14 0 24
-2 25 -22 11 -20 -13 -24 -12 -34 5 -7 10 -8 19 -3 19 5 0 11 -6 14 -12z m585
-7 c-12 -19 -28 -19 -28 0 0 6 5 7 10 4 6 -3 10 -1 10 4 0 6 5 11 10 11 6 0 5
-8 -2 -19z m455 7 c3 -10 8 -10 21 1 9 8 19 11 22 8 3 -3 -4 -11 -16 -17 -18
-10 -25 -9 -38 4 -9 9 -11 16 -5 16 6 0 13 -6 16 -12z m437 1 c0 -5 5 -7 12
-3 7 4 8 3 4 -4 -4 -7 -3 -12 3 -12 5 0 12 6 14 13 4 9 6 9 6 -1 1 -7 -6 -15
-14 -18 -8 -4 -12 -11 -9 -16 4 -6 -5 -2 -19 7 -15 9 -31 14 -37 10 -5 -3 -10
-1 -10 5 0 8 9 10 27 5 23 -5 25 -4 14 9 -9 11 -10 16 -2 16 6 0 11 -5 11 -11z
m126 -8 c-25 -17 -56 -19 -56 -4 0 3 6 3 14 0 8 -3 22 1 33 8 10 8 23 14 28
15 6 0 -3 -9 -19 -19z m-756 -32 c-5 -9 -6 -19 -3 -23 3 -3 1 -6 -6 -6 -9 0
-11 6 -6 18 4 9 7 26 7 37 -1 15 1 17 8 5 5 -8 5 -21 0 -31z m-1400 -29 c0 -8
-7 -2 -15 14 -8 15 -15 33 -15 40 1 16 29 -36 30 -54z m179 21 c-8 -17 -17
-31 -21 -31 -4 0 0 16 9 35 20 42 31 38 12 -4z m121 23 c0 -2 -7 -4 -15 -4 -8
0 -15 4 -15 10 0 5 7 7 15 4 8 -4 15 -8 15 -10z m359 3 c17 11 23 9 39 -12 11
-13 23 -21 27 -17 5 4 5 1 1 -5 -11 -20 -22 -16 -34 12 -11 25 -13 25 -37 9
-20 -13 -23 -19 -14 -30 8 -10 8 -14 0 -14 -6 0 -11 5 -11 11 0 5 -6 7 -12 3
-10 -6 -10 -4 0 8 7 8 10 24 6 34 -5 16 -4 16 5 4 8 -12 14 -13 30 -3z m291
-31 c0 -6 -5 -4 -10 4 -5 8 -14 16 -20 16 -20 3 -21 4 -15 15 8 12 45 -17 45
-35z m164 4 l17 -35 -20 25 c-11 14 -21 31 -21 39 0 18 4 14 24 -29z m252 31
c10 8 14 8 14 0 0 -6 -5 -11 -11 -11 -5 0 -7 -4 -4 -10 3 -5 1 -10 -4 -10 -6
0 -11 2 -11 4 0 2 -2 10 -3 18 -2 7 -2 9 1 5 2 -4 10 -3 18 4z m479 -11 c0 -7
-6 -14 -13 -16 -7 -1 -8 0 -2 3 5 2 10 9 10 14 0 6 -4 7 -10 4 -5 -3 -10 -1
-10 5 0 7 6 10 13 8 6 -3 12 -11 12 -18z m265 -16 c0 -3 -7 -1 -15 6 -9 8 -15
8 -15 2 0 -6 7 -17 15 -26 8 -8 15 -18 15 -22 0 -3 -7 -1 -15 6 -12 10 -18 10
-30 0 -10 -9 -15 -9 -15 -1 0 6 5 11 10 11 6 0 9 3 8 8 -1 4 1 17 6 30 6 19 9
20 22 8 8 -8 14 -18 14 -22z m70 28 c0 -5 -11 -15 -25 -22 -14 -7 -25 -20 -26
-29 0 -13 -2 -13 -6 -2 -4 9 6 24 23 38 32 26 34 26 34 15z m-1912 -24 c15
-15 15 -28 0 -28 -6 0 -8 3 -4 7 3 4 -4 13 -16 20 -15 8 -18 12 -7 13 8 0 20
-5 27 -12z m768 -3 c16 -8 22 -15 14 -15 -18 1 -70 29 -54 30 7 0 25 -7 40
-15z m500 -3 c1 -7 0 -8 -3 -2 -2 5 -9 8 -14 4 -5 -3 -9 0 -9 6 0 15 23 7 26
-8z m287 -12 c7 0 6 -4 -3 -10 -8 -5 -22 -9 -30 -9 -10 0 -8 3 5 9 14 6 16 9
5 10 -8 2 -18 2 -22 1 -4 0 -5 6 -2 14 5 13 8 13 21 0 8 -8 20 -15 26 -15z
m127 22 c0 -5 16 -17 35 -27 19 -11 32 -21 30 -24 -5 -4 -85 46 -85 54 0 3 5
5 10 5 6 0 10 -4 10 -8z m-1645 -11 c3 -5 2 -12 -3 -15 -5 -3 -9 1 -9 9 0 17
3 19 12 6z m248 -12 c-8 -8 -13 -7 -18 2 -5 8 -4 10 3 5 7 -4 12 -2 12 5 0 7
3 9 7 6 4 -4 2 -12 -4 -18z m119 -4 c-8 -16 -9 -16 -15 -1 -4 10 -3 15 3 11 6
-3 10 -1 10 6 0 7 3 10 6 6 3 -3 2 -13 -4 -22z m758 -8 c-14 -12 -26 -26 -27
-30 -1 -5 -5 -12 -9 -15 -4 -4 -4 -1 0 6 4 7 2 12 -6 12 -7 0 2 10 20 21 17
12 32 26 32 32 0 6 3 7 8 3 4 -4 -4 -17 -18 -29z m580 23 c0 -5 5 -9 11 -7 6
1 14 -5 16 -13 4 -12 3 -12 -5 -2 -5 8 -11 12 -13 11 -2 -2 -13 2 -24 9 -17
10 -18 11 -2 12 9 0 17 -4 17 -10z m-1931 -11 c-11 -7 -11 -9 -1 -9 7 0 11 -4
8 -9 -4 -5 -3 -11 1 -14 5 -2 3 -2 -4 -1 -6 2 -14 -2 -17 -9 -2 -7 -4 -1 -3
12 1 13 -3 26 -9 28 -7 2 -10 -7 -8 -26 2 -17 -1 -33 -6 -36 -10 -6 -50 15
-50 28 0 4 11 0 24 -8 23 -15 24 -15 24 10 0 20 -3 23 -14 14 -8 -6 -14 -8
-14 -4 0 14 33 33 58 33 17 0 20 -3 11 -9z m35 -3 c-3 -8 0 -17 6 -21 15 -9
-17 -45 -40 -45 -9 0 -26 -9 -38 -20 -24 -23 -40 -27 -23 -6 7 8 33 24 58 36
34 16 43 24 34 33 -14 14 -15 37 -1 37 5 0 7 -6 4 -14z m123 8 c-3 -4 0 -13 8
-21 19 -18 19 -25 -1 -49 -14 -18 -15 -18 -4 4 9 18 8 26 -5 38 -18 18 -20 34
-3 34 6 0 9 -3 5 -6z m769 -5 c4 -7 1 -10 -7 -7 -8 3 -23 1 -34 -4 -20 -9 -20
-9 -1 6 23 19 32 20 42 5z m-433 -14 c-3 -9 -8 -14 -10 -11 -3 3 -2 9 2 15 9
16 15 13 8 -4z m-639 -40 c-6 -15 -8 -15 -16 -2 -4 8 -5 23 -2 32 6 15 8 15
16 2 4 -8 5 -23 2 -32z m272 36 c-3 -5 1 -11 9 -15 8 -3 15 -11 14 -18 0 -10
-2 -10 -6 0 -2 6 -9 12 -14 12 -6 0 -7 -5 -3 -12 4 -7 3 -8 -4 -4 -7 4 -12 2
-12 -3 0 -6 -5 -11 -11 -11 -8 0 -7 6 2 17 12 14 12 16 -2 11 -9 -3 -22 -2
-30 4 -11 8 -11 9 3 5 9 -3 24 1 35 8 21 17 26 18 19 6z m428 -28 c3 -7 4 -13
2 -13 -6 0 -46 38 -46 44 0 10 39 -17 44 -31z m60 22 c3 -8 2 -14 -2 -14 -19
3 -25 -2 -12 -11 14 -9 12 -10 -15 -10 -3 0 -5 3 -4 6 0 4 -5 11 -13 16 -10 7
-8 8 5 4 11 -3 20 0 23 9 8 19 10 19 18 0z m316 -17 c-13 -13 -19 -16 -15 -8
14 25 28 41 32 36 3 -3 -5 -15 -17 -28z m95 22 c3 -5 1 -10 -4 -10 -6 0 -11 5
-11 10 0 6 2 10 4 10 3 0 8 -4 11 -10z m366 -32 c-10 -11 -11 -10 -6 5 4 10 2
17 -4 17 -6 0 -11 5 -11 12 0 8 6 6 17 -5 14 -14 15 -19 4 -29z m495 -5 c2
-40 1 -40 -17 -22 -22 22 -26 37 -5 20 11 -9 14 -6 14 13 0 21 -3 24 -19 16
-23 -13 -29 -13 -29 1 0 5 4 8 9 4 5 -3 13 -1 16 5 14 22 30 2 31 -37z m-1989
31 c-3 -3 -12 -4 -19 -1 -8 3 -5 6 6 6 11 1 17 -2 13 -5z m320 0 c-3 -3 -12
-4 -19 -1 -8 3 -5 6 6 6 11 1 17 -2 13 -5z m1553 -4 c0 -5 -4 -10 -10 -10 -5
0 -10 5 -10 10 0 6 5 10 10 10 6 0 10 -4 10 -10z m317 4 c-3 -3 -12 -4 -19 -1
-8 3 -5 6 6 6 11 1 17 -2 13 -5z m-1083 -12 c3 -5 0 -9 -7 -9 -7 0 -20 -4 -29
-8 -11 -4 -18 -3 -18 5 0 6 4 9 8 6 4 -2 14 -1 22 5 18 11 18 11 24 1z m366
-13 c0 -6 -4 -7 -10 -4 -5 3 -10 1 -10 -4 0 -6 -5 -11 -10 -11 -6 0 -5 8 2 19
12 19 28 19 28 0z m344 5 c3 -8 2 -12 -4 -9 -6 3 -10 10 -10 16 0 14 7 11 14
-7z m23 -6 c-3 -8 -6 -5 -6 6 -1 11 2 17 5 13 3 -3 4 -12 1 -19z m50 0 c-3 -8
-6 -5 -6 6 -1 11 2 17 5 13 3 -3 4 -12 1 -19z m30 0 c-3 -8 -6 -5 -6 6 -1 11
2 17 5 13 3 -3 4 -12 1 -19z m122 9 c15 10 22 9 35 -6 9 -10 16 -22 16 -27 0
-5 -8 1 -18 14 l-18 23 -25 -23 -26 -24 0 28 c0 19 3 24 8 16 7 -10 13 -10 28
-1z m71 3 c0 -5 -4 -10 -10 -10 -5 0 -10 5 -10 10 0 6 5 10 10 10 6 0 10 -4
10 -10z m-1795 -10 c-3 -5 -12 -10 -18 -10 -7 0 -6 4 3 10 19 12 23 12 15 0z
m-318 -6 c-3 -3 -12 -4 -19 -1 -8 3 -5 6 6 6 11 1 17 -2 13 -5z m173 -4 c0 -6
15 -19 33 -30 17 -11 25 -20 17 -20 -25 1 -86 60 -61 60 6 0 11 -5 11 -10z
m-140 -21 c0 -6 -4 -7 -10 -4 -5 3 -10 11 -10 16 0 6 5 7 10 4 6 -3 10 -11 10
-16z m2032 -18 c-5 -14 -3 -14 11 -2 11 9 17 10 17 2 0 -6 -4 -11 -10 -11 -5
0 -10 -6 -10 -14 0 -8 -3 -17 -7 -19 -5 -3 -9 15 -9 40 -1 26 2 40 6 33 5 -7
5 -20 2 -29z m98 24 c5 3 12 0 16 -6 4 -8 3 -9 -5 -5 -6 4 -14 0 -17 -9 -5
-13 -9 -14 -14 -4 -5 7 -5 19 -2 28 4 10 7 11 10 3 2 -7 8 -10 12 -7z m-2180
-5 c0 -5 -4 -10 -10 -10 -5 0 -10 5 -10 10 0 6 5 10 10 10 6 0 10 -4 10 -10z
m178 -10 c7 -11 10 -20 6 -20 -7 0 -34 27 -34 34 0 13 16 5 28 -14z m82 10 c0
-5 -4 -10 -10 -10 -5 0 -10 5 -10 10 0 6 5 10 10 10 6 0 10 -4 10 -10z m53 3
c-10 -3 -10 -10 -2 -26 11 -21 10 -21 -6 -5 -18 17 -13 39 8 37 9 0 9 -2 0 -6z
m1580 0 c-7 -2 -19 -2 -25 0 -7 3 -2 5 12 5 14 0 19 -2 13 -5z m45 -13 c17
-28 7 -40 -29 -36 -29 3 -76 36 -52 36 6 0 14 -6 17 -12 5 -10 7 -10 12 0 3 6
10 12 16 12 7 0 6 -5 -1 -14 -9 -11 -6 -13 14 -13 25 0 25 0 10 23 -8 13 -12
24 -8 24 5 0 14 -9 21 -20z m22 10 c0 -5 -2 -10 -4 -10 -3 0 -8 5 -11 10 -3 6
-1 10 4 10 6 0 11 -4 11 -10z m96 -6 c-4 -9 -1 -23 5 -30 7 -9 8 -14 1 -14 -6
0 -12 6 -15 13 -3 9 -9 9 -25 0 -16 -10 -23 -9 -36 6 -9 10 -16 22 -16 27 0 5
8 -1 18 -14 l18 -23 24 24 c30 30 34 32 26 11z m-2016 -24 c14 -14 16 -20 6
-20 -8 0 -17 7 -20 16 -5 14 -9 14 -24 3 -15 -13 -16 -12 -3 4 17 21 17 21 41
-3z m93 13 c-7 -2 -19 -2 -25 0 -7 3 -2 5 12 5 14 0 19 -2 13 -5z m132 -19
c-16 -25 -16 -27 7 -52 12 -15 16 -21 7 -14 -9 7 -25 10 -35 6 -16 -5 -16 -4
-4 5 13 10 11 14 -10 31 -22 17 -26 18 -37 4 -12 -17 -7 -44 9 -44 5 0 7 10 4
23 -3 12 -3 16 0 9 3 -6 10 -9 16 -6 6 4 5 -2 -1 -15 -15 -27 -27 -27 -41 0
-9 16 -8 24 5 39 14 16 21 17 37 7 17 -10 22 -9 35 11 9 12 18 22 20 22 3 0
-2 -12 -12 -26z m-107 -27 c-7 -15 -7 -22 3 -29 11 -7 9 -8 -4 -4 -10 3 -21 6
-23 6 -3 0 2 10 10 21 8 12 12 29 9 38 -4 13 -3 14 5 2 7 -10 7 -21 0 -34z
m-18 21 c0 -4 -9 -8 -20 -8 -11 0 -20 4 -20 8 0 4 9 8 20 8 11 0 20 -4 20 -8z
m160 -8 c6 -11 8 -20 6 -20 -3 0 -10 9 -16 20 -6 11 -8 20 -6 20 3 0 10 -9 16
-20z m1615 -14 c11 4 7 -3 -9 -20 -30 -29 -37 -32 -33 -13 1 6 -4 11 -11 9 -8
-1 -11 2 -7 8 5 8 11 7 21 -1 27 -22 14 5 -13 29 l-28 24 32 -21 c18 -12 38
-18 48 -15z m47 12 c-20 -20 -13 -32 8 -13 11 10 20 13 20 8 0 -6 -7 -14 -16
-17 -8 -3 -12 -11 -8 -17 4 -8 9 -7 15 2 6 10 9 10 9 2 0 -20 -17 -24 -33 -9
-8 8 -18 12 -22 8 -5 -4 0 7 10 25 11 18 21 30 24 28 2 -3 -1 -11 -7 -17z
m162 4 c3 -5 -1 -9 -9 -9 -8 0 -12 4 -9 9 3 4 7 8 9 8 2 0 6 -4 9 -8z m-2007
-15 c7 0 10 -4 7 -9 -3 -4 -15 -3 -27 3 -30 16 -37 24 -12 14 11 -4 25 -8 32
-8z m173 -12 c14 -19 14 -19 -2 -6 -10 7 -18 18 -18 24 0 6 1 8 3 6 1 -2 9
-13 17 -24z m1760 15 c8 -5 11 -10 5 -10 -5 0 -17 5 -25 10 -8 5 -10 10 -5 10
6 0 17 -5 25 -10z m-43 -22 c-3 -8 -6 -5 -6 6 -1 11 2 17 5 13 3 -3 4 -12 1
-19z m38 -6 c-3 -3 -11 0 -18 7 -9 10 -8 11 6 5 10 -3 15 -9 12 -12z m-95 -34
c0 -4 -12 -5 -26 -2 -16 3 -23 1 -19 -6 3 -5 1 -10 -4 -10 -16 0 -13 20 4 26
8 4 12 10 9 16 -3 5 3 4 15 -4 12 -7 21 -16 21 -20z m-1710 8 c0 -3 -4 -8 -10
-11 -5 -3 -10 -1 -10 4 0 6 5 11 10 11 6 0 10 -2 10 -4z m30 -3 c0 -5 -5 -15
-10 -23 -7 -12 -9 -10 -7 8 1 19 17 33 17 15z m1738 -48 c-3 -3 -9 2 -12 12
-6 14 -5 15 5 6 7 -7 10 -15 7 -18z"/>
<path d="M2440 1942 c0 -12 19 -26 26 -19 2 2 -2 10 -11 17 -9 8 -15 8 -15 2z"/>
<path d="M1003 1737 c0 -7 8 -13 18 -13 13 0 15 3 7 13 -6 7 -14 13 -18 13 -3
0 -7 -6 -7 -13z"/>
</g>
</svg>
