<?xml version="1.0" encoding="UTF-8"?><svg xmlns="http://www.w3.org/2000/svg" viewBox="0 0 256 256"><g id="a"><rect width="256" height="256" fill="none" stroke-width="0"/></g><g id="b"><rect x=".657" y=".896" width="256" height="256" fill="none" stroke-width="0"/><path d="M128.657,24.896c-57.438,0-104,46.562-104,104s46.562,104,104,104,104-46.562,104-104c-.061-57.412-46.588-103.939-104-104ZM64.586,130.765c.891,6.237,4.158,11.756,9.199,15.536,5.04,3.78,11.256,5.373,17.49,4.481,6.238-.892,11.756-4.158,15.537-9.2,2.789-3.719,8.064-4.469,11.781-1.682,3.718,2.789,4.471,8.063,1.683,11.782-6.478,8.637-15.932,14.233-26.62,15.76-1.939.277-3.877.415-5.801.415-8.683,0-17.097-2.79-24.167-8.093-8.637-6.477-14.235-15.932-15.762-26.619-1.527-10.689,1.2-21.331,7.678-29.968,6.478-8.637,15.932-14.235,26.62-15.762,10.688-1.524,21.331,1.199,29.968,7.678,3.065,2.298,5.785,5.018,8.084,8.084,2.788,3.718,2.035,8.992-1.684,11.781-3.717,2.787-8.992,2.035-11.781-1.684-1.342-1.789-2.928-3.375-4.717-4.717-5.042-3.782-11.254-5.37-17.49-4.481-6.238.891-11.756,4.158-15.537,9.199-3.781,5.041-5.372,11.252-4.481,17.49ZM179.209,167.442c-1.939.277-3.877.415-5.802.415-8.684,0-17.097-2.79-24.167-8.093-8.637-6.477-14.233-15.932-15.76-26.619-1.527-10.689,1.2-21.331,7.678-29.968,6.477-8.637,15.932-14.235,26.619-15.762,10.693-1.522,21.331,1.2,29.969,7.678,3.067,2.301,5.787,5.021,8.084,8.085,2.787,3.719,2.033,8.993-1.686,11.781-3.72,2.79-8.992,2.033-11.78-1.685-1.34-1.787-2.927-3.374-4.717-4.717-5.039-3.781-11.254-5.374-17.489-4.481-6.237.891-11.756,4.158-15.536,9.199-3.78,5.041-5.372,11.252-4.481,17.49.892,6.237,4.158,11.756,9.198,15.536,5.042,3.782,11.257,5.372,17.49,4.481,6.237-.892,11.756-4.158,15.536-9.198,2.789-3.72,8.063-4.472,11.78-1.683,3.719,2.789,4.472,8.063,1.683,11.78-6.477,8.638-15.932,14.235-26.619,15.762Z" fill="#000" stroke-width="0"/></g></svg>